<?xml version='1.0' encoding='utf-8'?>
<svg xmlns="http://www.w3.org/2000/svg" version="1.1" id="Layer_1" x="0px" y="0px" viewBox="0 0 1484.491 5000" enable-background="new 0 0 1484.491 5000"> <g> <path d="M1478.5717,6.0317C839.7507,3.6346,53.2158,0.8647,0,0v128.9452c115.1039,3.9691,122.2424,2.8542,141.8397,14.6249 c44.0961,26.4879,83.0746,79.2539,94.8075,128.3439c9.3057,38.9396,8.3277,47.4835-5.6204,49.089 c-11.5576,1.3295-11.8672,2.105-13.9691,35.0045c-3.361,52.6203-0.6727,47.1119,50.8708,40.6711 c33.2432,45.44,34.3898,42.5027,20.2967,63.2711c-14.1705,20.8812-13.8557,29.9896,1.5709,45.4162 c14.6896,14.6896,11.0062,12.564,112.0831,12.564l-0.0945,11.82c-0.1348,17.04-16.8356,41.4048-20.133,72.4047 c-2.0337,19.1235-1.0452,23.0975,7.7894,31.3286c5.5647,5.1844,14.9922,10.3897,20.9494,11.5671 c31.0012,6.1288,32.1943,7.1891,34.569,30.6974c4.3755,43.3361,24.6488,33.2874,19.4824,67.744 c-3.1386,20.9294,1.1144,27.3185,27.0735,40.6721c17.7845,9.1483,56.5027,44.9188,56.5027,52.2003 c0,2.6475,9.9332,24.4396,22.0743,48.4269c24.3535,48.1168,25.3871,55.9586,13.9155,105.5125 c-10.0371,43.3585-24.6295,66.3326-57.7064,90.8541c-15.8212,11.7281-30.4629,21.2584-32.5374,21.1781 c-5.5258-0.2139-35.1066-16.6974-45.8926-16.901c-14.1779-0.2676-32.549,12.5525-45.9955,32.0957 c-14.1055,20.5018-28.3904,25.288-38.6332,12.9449c-8.6981-10.48-1.2288-26.85,19.1036-41.871 c20.6524-15.2572,26.4061-29.0762,21.9641-52.7518c-5.1828-27.6301-41.8894-48.9651-96.7677-56.2451 c-43.0982-5.7174-100.0553,17.2929-115.4284,46.632c-4.0106,7.655-16.9366,22.6226-28.7241,33.2605 c-61.1539,55.1896-50.1615,50.4921-87.3791,111.2015c-37.0749,60.4803-41.3332,75.1744-41.286,142.3906 c0.0483,66.3237,8.2847,216.6621,14.8358,270.7849c9.2732,76.6152,50.5193,185.6378,101.5695,268.4664l15.7897,25.6195 c-48.9743,376.3588-81.6273,613.484-89.7716,847.079c-20.1567,578.4065-38.6007,562.6804,1.7955,605.3391 c8.589,9.0693,24.8939,21.2366,36.2333,27.0383c11.3404,5.802,21.5906,13.0808,22.7784,16.1758 c1.1868,3.0947-1.8584,29.1721-6.7684,57.95c-7.3749,43.2246-8.2637,58.9404-5.1104,90.3782 c4.4682,44.5405,7.718,49.9482,49.6672,82.6333c41.5011,32.3359,42.3679,33.3623,39.119,46.2852 c-24.4836,97.3762-25.3609,160.5151-2.5951,186.7754c12.5368,14.4624,130.1125,75.9504,135.5079,95.2114 c8.0098,28.5991-5.5564,216.5486-21.7186,300.8718c-55.9561,291.9629-261.6132,356.6978-254.4999,513.3413 c1.3484,29.6777,3.1712,35.9175,15.924,54.5107c7.9216,11.5493,21.2862,26.3169,29.7,32.8179 c23.8798,18.4526,30.9348,8.6338,132.1122,13.9692c0.0473,12.2246-0.7315,138.5278,4.7421,144.0015 c7.266,7.2656,967.5305,10.6851,975.2419,4.2852c8.9552-7.4312-1.1686-57.0361,3.9985-112.2202l2.9739-31.7676 c25.2139,0.9863,119.2556,7.4858,144.9448-16.4116c29.381-27.3325,30.0106-71.4668,1.5269-107.0107 c-63.5726-79.3325-90.6956-64.6777-119.8478-119.4243c-65.2863-122.6025-54.4703-79.6812-118.5015-193.1343 c-53.9769-95.6406-61.1572-135.4116-58.0989-321.8252c1.0735-65.4617,3.4257-122.3884,5.2258-126.5034 c5.6202-12.8472,34.9175-24.717,64.5083-64.0837c16.4099-21.8298,19.5411-29.0789,19.5411-45.2417 c0-15.873,2.3821-21.6287,13.5902-32.8369c35.0297-35.0295,31.5175-54.0095,29.7494-184.897 c10.3173-16.9377,28.0031-43.1885,36.4102-75.9348c7.7699-30.2603,19.5605-139.958,16.0315-149.1543 c-1.1915-3.1045-0.9265-12.2507,0.5876-20.325c2.2026-11.7385,6.8198-17.0317,23.0376-26.4114 c17.9105-10.3579,33.7196-22.8193,101.068-79.665c16.0951-13.585,16.2777-14.0862,13.8016-37.8091 c-1.3804-13.2229-4.4261-35.6467-6.7699-49.8306c-7.6078-46.0532-18.8937-332.115-23.2328-588.8499 c-3.4618-204.8496-7.2595-272.2075-23.8656-423.3701c-7.3876-67.2351-25.3726-283.5488-47.2856-407.7466 c-6.917-39.205,3.4194-18.6118,40.8741-162.1118c25.8357-98.986,34.6729-127.198,48.2117-153.9163 c16.4319-32.4268,25.4774-61.4226,35.97-115.303c18.7858-96.4641,51.1646-121.1791,22.2778-159.2512 c-6.5007-8.5685-16.9807-19.5663-23.2874-24.4401c-19.0343-14.7094-50.8561-62.631-50.8561-76.5864 c0-29.7588,42.0192-105.0714-8.5964-60.8964c-22.1929,19.369-37.6038,26.4543-51.0995,23.4899 c-15.0205-3.2992-32.4094,9.6898-39.6028,29.5825c-6.6918,18.5049-17.0133,24.2969-85.5626,48.0144 c-56.53,19.5601-116.0109,29.8448-116.0109,20.0607c0-8.8776-31.04-35.2983-46.5201-39.5981 c-27.2546-7.5696-30.1196-4.6584-65.7822,9.6106c-32.0416-31.0551-22.8322-29.6101-74.5685-25.7482 c-11.5093,0.8589-14.0084-1.4219-24.8604-22.6849c-13.2644-25.9916-31.3338-81.9188-35.8713-111.0275 c-1.9686-12.629-4.0872-16.7761-6.5889-12.8945c-8.0863,12.5504,1.9634-25.5361,12.1002-45.8559 c18.007-36.094,21.8956-65.4377,44.8947-93.182c31.0604-37.4687-3.666-9.4496,71.1067-76.8918 c60.2689-54.361,70.1769-67.2471,70.1979-91.3225c0.0194-19.4362-4.783-29.5447-24.5162-51.6096 c-12.4622-13.935-14.2623-18.5081-11.8431-30.0872c5.4473-26.0682,8.0591-26.9323,66.5945-22.0297 c34.0039,2.848,38.3855,2.2577,60.335-8.1257c13.0178-6.1587,31.9912-18.3213,42.1632-27.0284 c17.5636-15.0337,18.3617-16.7205,15.8479-33.484c-2.5284-16.8595-1.6685-18.6177,19.1089-39.0912 c24.9067-24.5425,21.6783-21.4321,79.4716-25.7361c2.0823-59.6229,5.4952-87.7446-17.5022-81.9722 c-13.5767,3.4078-14.6764-3.3606-7.674-47.2007c10.3975-65.0907,35.5858-102.4195,84.2855-124.9115 c25.035-11.5629,30.9063-12.4706,86.7327-13.4108c42.6785-0.7188,60.8711-2.5709,63.3319-6.4473 C1489.6595,117.1333,1478.696,7.3832,1478.5717,6.0317z M206.3165,167.0789c-19.0081-25.2544-22.5801-32.3664-17.2787-34.4006 c11.3121-4.3407,29.4933,6.581,44.2735,26.5944c7.7579,10.5051,16.5757,19.1004,19.5947,19.1004 c3.0201,0,10.2113-10.1546,15.9817-22.5654c11.8426-25.4698,13.1191-22.8186,38.9386-25.2969 c-23.9566,36.1993-24.1621,30.8904-24.0492,81.9334c0.0829,38.1463,1.659,48.7359,9.8136,65.938 c9.4033,19.8365,9.4684,20.8314,2.0504,31.0269c-13.7959,18.9593-28.9612,10.1321-33.1304-19.2835 C257.9901,258.2241,231.8694,201.0288,206.3165,167.0789z M470.5052,264.9421l8.4536,27.1606 c-13.3116,13.8945-10.9763,11.906-11.4076,11.906c-13.1464,13.7225-17.1927,14.4182-30.3328,5.2148 c-8.4715-5.9336-9.5523-10.4542-9.5523-39.9297c0-67.0262-28.4175-119.4688-34.3738-123.1501 c-8.0759-4.9918-4.4766-15.0515,5.3612-14.9848c13.6196,0.0929,17.9871,3.8669,28.5226,24.6489 c5.0946,10.0466,11.0655,18.2672,13.2712,18.2672c7.6144,0,24.4657-59.0329,39.9155-43.583 C494.0164,144.1455,442.522,175.0243,470.5052,264.9421z M391.5451,187.9281c10.9931,23.8493,12.458,31.8066,12.458,68.594 c0.0231,40.1957-0.4061,42.0641-12.6007,54.8017c-18.2074,19.0197-30.0988,17.3239-54.2529-7.7353 c-25.3042-26.2523-36.1682-55.9146-35.1766-96.0473c1.0378-42.0032,18.3564-72.1497,41.4476-72.1497 C355.7326,135.3914,379.0735,160.8719,391.5451,187.9281z M437.5112,1119.6731c13.543,0,45.795,20.3665,45.9409,29.0127 c0.4333,0,4.8147,8.2434-52.5603,2.2415c-13.3258-1.3942-16.1182-3.3538-16.1182-11.3121 C414.7737,1126.5527,422.6177,1119.6731,437.5112,1119.6731z M222.4294,1023.6243 c68.8268-51.8444,182.2635-10.344,155.5632,30.4052c-4.7861,7.3035-10.4946,9.7675-22.6336,9.7675 c-17.6292,0-26.5498-6.0098-26.5498-17.8853c0-4.1628-4.2331-11.5126-9.4065-16.3328 c-10.927-10.1804-51.2297-12.2859-70.1496-3.6649c-10.2669,4.6775-10.9354,6.5396-8.0937,22.5654 c1.7031,9.6063,3.2646,21.1393,3.466,25.6274c0.6506,14.3831-10.2292,12.5829-16.6365-2.752 c-3.3758-8.0796-9.1515-17.1901-12.8337-20.2468C205.0352,1042.709,207.0122,1035.2375,222.4294,1023.6243z M342.1707,1086.1587 c-2.7305,32.7502-0.6317,42.0638-47.7469,20.8801c-20.3418-9.1472-28.3264-15.0992-29.3684-21.8928 C263.1573,1072.769,262.0104,1076.4403,342.1707,1086.1587z M263.0595,1041.8636c2.4072-2.4067,13.8337-3.7756,25.3924-3.0415 c19.3439,1.2288,21.1236,2.275,22.3755,13.1547c0.7482,6.5009-0.2193,11.4822-2.1491,11.0687 c-1.9298-0.4125-11.5786-1.4839-21.4416-2.38C267.9055,1058.91,255.5902,1049.3325,263.0595,1041.8636z M90.8944,1689.181 c-47.1132-130.3284-30.8949-179.3107-44.1885-353.9917c-5.0264-66.0309,12.7308-114.91,74.6094-205.3726 c26.6579-38.9717,62.9164-68.3846,77.4742-62.8456c10.0088,3.8075,5.4451,10.7979-28.4659,43.605 c-33.675,32.5784-45.6859,48.4888-40.5126,53.6632c3.7798,3.7787,24.9611,3.4041,28.8018-0.51 c6.4525-6.5753,56.5101-12.0875,77.7858-8.5654c48.9589,8.1058,41.4381,14.5798-26.2266,22.5754 c-65.3992,7.728-104.8204,20.7815-94.3573,31.2441c1.5258,1.5262,6.0716,0.7292,10.1011-1.7709 c25.4921-15.818,139.0778-23.3367,141.8177-9.3876c2.3002,11.7156-11.6615,15.6097-42.0803,11.7329 c-20.3943-2.5992-33.7411-1.915-49.429,2.5332c-24.449,6.9331-61.3277,28.9297-65.1348,38.8494 c-5.123,13.3521,3.1124,11.3855,25.8824-6.1818c36.3278-28.0264,67.1904-33.0884,67.1904-11.0204 c0,8.2888-4.6298,12.5199-23.428,21.4132c-20.515,9.7045-24.895,14.1306-35.2238,35.5858 c-9.8766,20.516-12.0876,31.6356-13.586,68.3427c-2.6717,65.4323,5.5186,96.2104,41.8956,157.4415 c66.0992,111.2604,60.8855,79.625,91.0224,133.9758c13.4559,24.2665,14.3405,28.4534,14.9953,70.9199 c0.8437,54.7639,0.935,55.4707,6.016,46.7736c7.2259-12.3656,9.7265-53.3,4.6917-76.7789 c-20.5676-95.8992-116.8317-131.4366-60.5816-182.2537c9.4631-8.5492,17.8779-15.5442,18.7006-15.5442 c3.1749,0,18.3611,6.1206,38.4128,10.5156c8.1262,1.7819,16.0951,9.098,24.7145,22.6882 c35.2038,55.514-18.5889,119.8323,23.6756,210.8351c12.8809,27.7324,12.8777,27.4742,0.4964,47.2478 c-10.7152,17.1124-59.0695,111.3973-65.6878,111.3973c-16.6197,17.6586-29.3317,18.1539-51.6148,2.0127 C172.4033,1864.8022,128.2589,1792.5449,90.8944,1689.181z M212.5518,1359.015c0.3808,40.9015-21.7442,122.3844-35.1651,125.1051 c-10.2984,2.0876-32.7127-52.5525-35.9804-87.707c-3.2992-35.4945,3.6046-81.8143,15.5557-104.3734 c8.8377-16.6812,27.2728-32.1555,35.1714-29.5226C198.4232,1264.6136,212.2811,1330.1135,212.5518,1359.015z M408.3485,1970.7114 c2.9791,0,10.6426-10.6802,17.029-23.7334c23.3044-47.6361-5.9914-37.8596,17.1916-77.4185 c6.4158-10.947,13.3709-18.1702,15.9566-16.572c5.0569,3.125,2.4156,49.226-4.8963,85.4875 c-2.3841,11.8199-7.5512,42.7668-11.4831,68.7708c-8.2952,54.8547-6.2416,67.2986,17.6576,106.9863 c17.3678,28.8408,14.2869,35.5886,15.1454,35.3738c0,18.4949-15.7677,12.6694-30.4954-11.2661 c-15.9629-25.9421-24.3074-27.1223-45.5957-6.4473c-18.6733,18.1365-24.9684,18.7546-32.8197,3.2236 c-17.4005-34.4199-24.6484-80.8313-9.3571-59.9199c11.1169,15.2043,44.136,20.6104,55.637,9.1096 c11.4044-11.4041,7.6782-22.7397-15.4077-46.8757c-34.547-36.1174-37.6405-49.8921-29.9697-133.4769 c4.9824-54.2985,10.8724-75.0795,18.9808-66.97c3.5196,3.5205,5.3517,23.9431,5.6445,62.8833 C391.9963,1957.4535,395.1371,1970.7114,408.3485,1970.7114z M403.363,1598.3501c8.1084-23.9521,21.3807-39.8751,26.4302-31.7058 c5.755,9.3114,4.0054,103.9254-17.5736,135.0751c-5.4399,7.8507-5.9593,7.6477-11.0046-4.2982 C393.4098,1678.9403,394.5956,1624.254,403.363,1598.3501z M520.4022,1682.4883c-11.6731-39.3053-5.2489-105.0597,10.2638-105.0597 c6.0978,0,20.7144,47.9073,24.6158,80.6799c1.3422,11.2784,4.2929,21.6514,6.5574,23.0513 c9.8188,6.0684,10.8231-7.441,3.2373-43.5568c-9.3656-44.585-8.3209-52.3655-8.4631-62.525 c30.984,2.4821,70.7134,5.5029,72.6397,7.1687c0.9465,0.818,3.2646,28.1149,5.1524,60.6587 c5.4167,93.3898-0.8679,103.6725-68.6816,112.3695h-0.0021c-58.6854,7.526-59.3706,7.3943-81.1112-15.5903 c-10.6216-11.2291-23.066-28.7084-27.6538-38.843c-8.0444-17.7667-8.0937-19.9966-1.3788-62.3235 c3.8302-24.1432,8.5942-45.5411,10.587-47.5502c5.3255-5.3696,21.6756,12.8096,21.6756,24.1001 c0,14.2765,19.9284,84.2441,26.1196,91.704C524.0413,1718.9188,527.4286,1706.1492,520.4022,1682.4883z M1032.389,2096.5603 c-29.3102,34.8745-34.6431,33.3398-45.2484-13.022c-17.5918-76.8973-27.7888-191.0911-56.2073-264.6172 c-8.6913-22.4862-6.6949-25.8473,13.5902-22.8839c50.3986,7.3623,69.1187,11.0686,72.0999,14.2734 c1.7997,1.9344,6.2568,17.0568,9.9044,33.6046c22.7799,103.3488,22.5579,85.9623,29.9424,174.076 c6.9841,0,24.3422,1.1696,26.8667-5.411c4.2721-11.1355-56.0408-238.9989-47.7731-247.1046 c4.8816-4.7861,38.6763,34.2915,54.0242,62.4694c15.8789,29.1512,35.9982,95.5394,45.0663,148.7023 c7.5391,44.2008,8.6924,112.5577,1.968,116.713c-10.778,6.6611-23.696-2.5898-34.1409-24.4485 c-5.91-12.3684-13.1873-23.2518-16.1716-24.1858C1076.7797,2041.7441,1031.9587,2096.5603,1032.389,2096.5603z M1044.6729,1676.3657c-8.2285,19.791-38.5916,47.0282-50.5587,74.0643c-8.7417,19.7489-15.967,21.9442-44.752,13.5986 c-19.7101-5.7148-22.4998-11.4307-18.698-38.3131c3.8663-27.3379,0.1888-120.3489-4.7583-120.3489 c-8.8713,0-16.8391,16.0216-24.8352,49.9399c-5.9236,25.1301-13.7397,44.6943-24.0734,60.2573 c-26.2156,39.4833-36.8912,27.7504-26.171-28.7623c3.6622-19.3077,6.6592-35.8582,6.6592-36.7789 c0-0.9209-3.6035-1.6743-8.0082-1.6743c-7.8539,0-14.6548,16.0804-25.3273,59.8817c-4.7793,19.6167-11.0256,20.7626-22.8273,4.189 c-38.4111-53.9427-29.9988-119.9395-26.5771-120.0812c44.5222-1.8716,144.5477-2.4338,230.4009-23.6768 c23.5061-5.8156,44.6334-10.5743,46.9489-10.5743C1057.9456,1558.0868,1051.5624,1659.7937,1044.6729,1676.3657z M810.7451,1785.8905c15.1232,0,1.4978,7.9019,1.7209,64.7056c0.0939,23.7123,2.5242,32.8528,15.3552,57.7535 c24.7817,48.0916,42.3616,51.7958,23.6326,4.9797c-28.3903-70.962,2.3361-72.321,22.4872,2.3442 c5.2793,19.5621,9.5119,27.4308,15.3616,28.5573c7.409,1.4271,7.8392-0.5173,5.2227-23.5912 c-5.4824-48.3477-33.5713-122.7449-25.6122-130.7039c7.3413-7.3413,31.2809-9.8624,33.187-3.4949 c31.9166,106.6356,38.8333,123.8787,43.4435,167.078c4.2423,39.7579,17.7498,110.2496,23.3125,146.8644 c4.4551,29.3242,14.4701,26.7708,12.4948,47.3474c-1.1339,11.8154-3.3244,14.4761-12.82,15.5742 c-9.726,1.125-14.584-2.9104-32.2363-26.7756c-11.4312-15.4553-23.2255-28.1399-26.2098-28.1882 c-2.9844-0.0486-11.9758,10.1504-19.9808,22.6638c-18.5558,29.0071-22.9683,32.4788-50.6436,39.8457l0.0005,0.0002 c-30.9246,8.2319-46.0637,7.6858-62.3571-2.249c-18.23-11.1152-24.0219-24.0952-33.6435-75.3918 c-8.801-46.928-9.3235-65.5184-5.4205-192.8754c1.9335-63.0942,4.1235-86.8345,8.3786-90.8278 C753.8184,1802.5632,799.2314,1785.8905,810.7451,1785.8905z M746.8559,1772.3942c0,3.0372-76.7279,21.1427-60.9541-13.4806 c10.7272-23.5386-25.8542-55.7979-29.5846-129.1509c-1.0598-20.8602-0.234-39.3829,1.8364-41.1621 c4.8475-4.1636,77.2852,1.0327,89.1682,1.7225c0.3331,36.8792,0.3356,109.9144,4.6119,146.7485 C755.2219,1765.3903,754.8289,1768.1274,746.8559,1772.3942z M658.7601,1860.6536c8.7752,39.6633,36.9224,76.2946,27.085,15.2115 c-5.4231-33.6719-0.4396-42.0746,14.6354-24.6761c8.3613,9.6493,10.5429,18.4519,13.1317,52.9847 c1.9665,26.2329,1.2618,52.8412-1.9235,72.587c-6.3948,39.64-2.0132,84.0603,11.0618,112.1504 c13.2413,28.4463,12.7659,33.5454-4.9561,53.1614c-8.2737,9.1582-15.0436,19.8018-15.0436,23.6523 c-0.9177,0,2.8179,12.8574-12.895,2.7026c-9.3125-6.0193-32.5579-2.3687-45.8287-9.8235 c-8.9332-5.0171-40.1663-46.6165-40.1233-53.4709c0.0074-1.8303-3.6885-11.064-8.2123-20.52 c-30.8144-64.4102-32.4996-69.2441-34.1146-97.8396c-1.0934-19.3486-3.3191-28.7976-6.5354-27.7433 c-15.733,5.1582-2.6444,66.068,29.892,139.108c25.3431,56.8909,28.169,70.2893,14.8285,70.2893 c-17.6932,0-38.8294-35.801-55.8259-94.5598c-11.2439-38.8689-16.3333-112.1495-9.6153-138.4388 c2.5919-10.1442,5.9435-31.7106,7.4473-47.9248c3.1229-33.6671,8.4861-33.0186,12.7602,1.5421 c1.6076,13.0021,3.8354,25.1222,4.9498,26.9338c4.8543,7.889,10.0413-3.2435,10.1609-21.8151 c0.1469-22.3403,16.7625-68.4214,23.5088-65.1978c2.3643,1.1292,4.2982,17.5946,4.2982,36.5901 c0,32.6539,0.7807,35.5229,14.33,52.6526c7.8817,9.9637,16.1622,18.1162,18.4016,18.1162c9.1693,0,7.9153-12.7792-2.7924-28.4576 c-9.4264-13.8263-11.0591-20.1665-9.4694-37.1331c2.1627-23.0885,13.3478-38.5781,26.489-36.6798 C651.2877,1835.0492,654.3517,1840.7273,658.7601,1860.6536z M509.1814,2112.8337c-9.3529,17.4778-15.2608,7.7388-29.2162-48.1699 c-16.5637-66.3589,7.2819-114.4906,7.6897-167.8419c0.1731-22.5948,5.3349-34.1483,12.1925-27.2908 c1.5604,1.5604,3.0054,28.3485,3.2111,59.5302c0.2067,31.1818,2.6066,70.233,5.3339,86.7809 C516.0381,2062.24,513.3632,2112.8337,509.1814,2112.8337z M363.6762,1708.5228c-6.1461,0-21.6031-45.3455-24.1762-70.9198 c-4.4755-44.4772,20.1362-97.5946,30.4839-65.7917C376.197,1590.9019,372.6424,1708.5228,363.6762,1708.5228z M143.9332,2578.9031 c-11.3369,310.9226-29.2333,362.4463-13.4423,693.4631c-28.4937,11.4004-42.9351,18.582-49.6462,8.2139 c-8.1689-12.6216,4.0072-600.8835,47.6325-972.4619c34.6574-295.1831,45.3143-364.0817,45.5516-386.8358 c0.1794-17.1858,5.9719-32.0426,10.6636-27.3505c5.57,5.5695,7.5554,61.9442,3.1302,88.8406 c-15.7198,95.5205-26.1521,364.7112-35.0968,437.0984C150.3888,2438.7827,146.4328,2510.3472,143.9332,2578.9031z M166.9645,3537.7563c-11.7696,8.3765-13.0162,6.04-16.6953-31.293c-3.0862-31.3203,4.6906-115.9583,11.3373-123.3872 c4.508-5.0388,40.479,8.3362,58.5406,21.7668c18.5201,13.7725,25.7177,39.158,18.6744,65.876 C228.4137,3510.2058,206.635,3509.5195,166.9645,3537.7563z M292.2401,3766.0952c-8.7899,12.5481-59.1418,44.2351-64.9133,44.2351 c-11.8042,0-13.1852-71.1624-2.3359-120.3489c6.8901-31.2393,7.5281-32.2771,20.6167-33.5491 c16.1055-1.5645,24.81,8.5911,51.9863,60.6509C304.674,3730.6467,302.3842,3751.6125,292.2401,3766.0952z M271.8909,2118.6724 c-1.7042-1.7046-2.2026-7.1638-1.1071-12.1321c4.003-18.1536,7.6488-100.0739,17.8748-135.6678 c10.4254-36.2889,27.6664-77.5282,32.4126-77.5282c8.2354,0-5.6571,131.8546-18.6775,177.2566 C302.3937,2078.47,280.3083,2127.0896,271.8909,2118.6724z M333.4211,3371.918c-2.55-39.0059-6.3602-83.4919-8.4683-98.8579 c-5.2027-37.9363-7.6719-538.8303-3.5531-721.009c3.4891-154.3657,9.3267-214.679,23.9883-247.8225 c7.7925-17.6174,23.9716-32.2168,29.5363-26.6526c1.3138,1.3137-0.7996,15.5061-4.6969,31.5383 c-12.7969,52.6541-21.8581,275.3027-21.1509,519.7219c0.3557,123.0652,1.9099,147.6499,9.332,147.6499 c1.7724,0,5.5081-42.0684,8.3015-93.4854c9.6571-177.8218,17.6805-96.7542,20.451-282.6047 c1.85-124.0747,5.9005-166.1118,21.0334-218.2646c14.4749-49.8796,19.1529-61.0186,23.705-56.4436 c7.5252,7.5674-13.7141,448.9795-0.318,683.0349c6.8624,119.8882,4.8896,56.8762,15.4014,174.0759 c8.7852,97.9612,10.4055,107.4543,18.3397,107.4543c5.1691,0,5.9152-3.6594,3.7231-18.2671 c-19.894-132.5906-27.4197-468.7803-23.5896-516.8555c1.5069-18.9121,3.9749-53.7271,5.485-77.3672 c3.8631-60.4365,12.8271-94.0527,19.4415-166.0796c5.7673-62.7966,8.5617-76.7671,15.3511-76.7671 c8.9363,0,10.588,15.5559,10.7171,101.0071c0.0682,44.916,1.8122,84.3306,3.8763,87.5886 c6.674,10.5374,13.308,0.5347,13.3594-20.146c0.1132-44.2944,9.5054-9.7676,19.1823-168.4497 c5.8019-95.1814,10.6426-127.4019,21.2317-141.3357c17.9133-23.5698,8.4879,126.2263,4.2048,164.0864 c-11.842,104.6653,1.392,248.249,8.7947,255.6516c6.1797,6.1792,6.6277-6.9265,2.3999-70.1123 c-12.7123-189.9827,29.6373-170.825,36.1399-321.8015c1.212-28.1533,4.038-53.0217,6.2794-55.2632 c11.7255-11.7253,28.6202,58.1838,35.5942,147.2834c10.3728,132.5383-12.4801,223.3655-0.8531,288.4324 c4.1775,23.3765,4.8302,72.8079,2.7388,207.4602c-2.9204,188.0955-3.3915,197.6353-14.0258,284.2258 c-15.6689,127.5876-0.0797,373.6079-10.0161,457.7554c-9.5278,80.6931-16.4847,349.9304-18.2169,411.9026 c-8.0959,1.0547-51.5638,6.8213-56.869,7.0154c-5.5247,0.2031-2.5751-36.2666,2.1837-251.2893 c8.2838-374.4587,25.4892-285.8064,32.1628-714.571c2.6664-171.2695,2.3632-183.7468-4.4545-183.7468 c-6.6603,0-7.0485,4.9026-4.3444,54.8018c4.8118,88.7668-8.4628,122.5483-12.5839,321.2883 c-4.3579,210.1563-12.2128,117.7676-30.4985,397.5808c-9.597,146.8674-18.608,162.6624-19.0963,274.3118 c-0.4087,92.4744-6.3365,131.76-10.8451,170.5496c-10.7944-0.0693-65.4417,0.6558-70.6995-4.5996 c-8.5942-8.5942-13.5284-123.834-10.5681-246.845c2.2267-92.5261,1.6066-128.8079-2.5352-148.2871 c-7.6703-36.0762-2.4807-128.4126-8.3225-139.3286c-6.1604-11.5061-6.4856-176.4507-13.266-232.4631 c-8.8755-73.3413-9.7842-222.9175-1.8741-308.7998c5.0464-54.8015,6.3706-92.4304,4.1806-118.8684 c-6.8241-82.4063-2.3836-145.1677-12.7686-134.7817c-1.1239,1.124-3.0012,31.9097-4.1723,68.4128 c-4.7204,147.123-16.9592,45.5864-22.0218,270.5322c-2.3653,105.0261-1.6443,130.7739,5.0558,180.5232 c13.9185,103.3647,3.8106,201.6572,13.8264,298.7229c6.9111,66.9521,12.714,221.175,16.1538,242.2183 c4.7851,29.2886,2.7157,286.0322-2.5447,315.6084c-2.8532,16.0317-4.189,32.9536-2.9739,37.6035 c2.8855,11.0337-11.2907,16.8174-9.8629,17.0552c-16.9517,12.0732-21.4641,19.6157-16.3847-35.8291 C389.0323,3926.9102,378.1578,4056.2905,333.4211,3371.918z M1051.6101,4265.0078c0.7928,0.8149,2.9,1.3804,5.7411,52.8037 l-57.9231,19.665c-6.3709-39.2808-9.543-50.8711-5.4677-57.1572C998.0304,4274.043,1047.5938,4260.8799,1051.6101,4265.0078z M967.4426,4809.5918c-16.5622-12.5313-1.0345-91.9644-18.7405-174.0122c-10.1676-47.1113-10.4649-58.0483-11.6998-70.9199 c89.3307-2.7764,82.9673-10.0625,92.0996,44.1128c7.7993,46.2598,26.0613,140.3647,26.0818,158.6831 c0.0199,14.8047-8.068,22.4604-41.7173,39.4897C1013.4664,4804.3813,988.5509,4825.564,967.4426,4809.5918z M999.3264,4450.2222 c0,7.0713-3.6198,8.5596-23.8477,9.8091c-13.116,0.8101-26.5771,0.5049-29.913-0.6768 c-7.7375-2.7407-27.9045-29.9077-27.9045-37.5889c0-12.3511,49.0397-23.8657,63.2312-14.8477 C987.3994,4411.0537,999.3264,4439.0703,999.3264,4450.2222z M932.7041,4263.7876c32.3394,3.5195,36.4122,1.6978,31.412,37.5659 c-2.0625,14.7993-4.6917,31.2583-5.8428,36.5776c-1.2571,5.8091-5.2825,9.6709-10.0812,9.6709 C926.9906,4347.6021,930.6666,4322.0317,932.7041,4263.7876z M986.4308,4209.1211c-71.6368-1.2485-70.7271-2.4663-71.2656-3.001 c-0.9922-0.9854-1.8033-9.9468-1.8033-19.9146c0-21.04,4.1639-23.272,43.5961-23.3662 C988.6768,4162.7617,986.4308,4166.1436,986.4308,4209.1211z M926.5858,4663.5176c2.3185,14.4146,8.2816,55.6069,8.2816,69.8467 c-0.0157,20.3887-0.0703,20.4067-32.2504,10.7549c-26.4315-7.9272-85.3281-6.8838-126.5963-7.1675 c-3.687-10.8208-20.059-54.0923-9.4673-54.0923c1.9954,0,13.692-9.6499,25.9926-21.4434 c78.222-74.9985,47.05-204.4097,60.7437-212.8701c4.4907-2.7754,40.6768,8.9805,50.4017,16.3735 C913.8049,4472.6074,902.3001,4512.5322,926.5858,4663.5176z M898.781,4358.2759c-15.1843,15.1846-33.7894,14.5005-45.3008-1.666 c-14.521-20.3945-11.9365-24.7451,17.8139-29.9854c28.1454-4.9575,30.7651-4.1265,35.4048,11.2354 C908.8234,4344.8936,906.7078,4350.3491,898.781,4358.2759z M858.6986,4143.9507c-28.6794-7.8506-26.2582-11.1909-29.1512-47.7925 c8.7454,0.251,53.9745,0.6563,58.3076,5.0859c3.3145,3.3862,4.7998,25.4346,4.7998,25.0015 C894.2205,4150.8955,890.7245,4152.7183,858.6986,4143.9507z M879.6973,4217.6724c1.7162,1.7231,4.4677,21.0249,6.1146,42.8916 c3.4755,46.1372-0.9843,51.1553-15.977,17.981c-7.7752-17.2046-12.4402-22.2969-22.2118-24.252 c-12.9821-2.5962-23.1027-17.6377-19.0223-28.2705C831.1351,4219.4175,874.3965,4212.3481,879.6973,4217.6724z M828.5044,4548.8237 c-15.8408,8.1914-13.0188,6.4136-13.234,6.8442c-42.7129,22.0874-23.268-12.4419-54.7031-40.0435 c-13.5929-11.9346-17.976-13.2871-43.0599-13.2871c-30.5531,0-49.6599,6.2949-72.8969,24.0186 c-38.8688,29.6445-5.9118-5.666-11.7035-180.9731c-2.339-70.833-2.2939-71.2959,8.1389-83.6938 c19.6933-23.4038,37.4694-31.123,70.5127-30.6201c29.2209,0.4448,56.9991,4.9644,84.2341,13.7075 c21.8665,7.019,23.7905,17.6284,25.0513,138.1187C822.0718,4500.2549,824.8132,4516.4365,828.5044,4548.8237z M494.567,4584.0015 c-14.7917-60.2573-13.0708-64.3193,27.6622-65.293c32.1707-0.769,43.8691,3.021,55.8762,5.8018v90.7568 c53.3762,79.2827,50.7239,78.8252,68.8264,72.5151c24.7187-8.6177,38.2103-6.1997,54.1007,9.6904 c12.8232,12.8232,14.6144,17.3179,14.6144,36.6733c0,27.0903-8.0795,47.458-23.6987,59.7441 c-38.2212,30.0635-106.4857-27.1357-165.3453,2.4292c-12.2502,6.1533-23.0439,11.187-23.9873,11.187 C487.8127,4807.5063,512.7454,4658.0537,494.567,4584.0015z M356.7568,4403.478c2.6601-18.8765,10.971-30.0869,22.3041-30.0869 c9.0232,0,4.4955,50.7397,2.0998,56.6948c-2.743,6.8218-3.6602,6.8218-15.0258,0 C354.9109,4423.3491,354.2289,4421.4131,356.7568,4403.478z M351.9706,4332.9414c1.5058-6,3.9319-22.3335,5.3916-36.2954 c2.6171-25.043,2.8784-25.4521,19.3754-30.3955c16.9881-5.0894,27.3589-3.0786,22.7333,4.4063 c-3.2419,5.2422-10.9212,59.2231-12.6343,70.498C349.5828,4343.8267,348.7719,4345.6846,351.9706,4332.9414z M367.4938,4471.5942 c16.5767,2.3042,22.0565,9.1411,20.6346,25.7441c-1.4911,17.4004-5.6655,19.8936-20.6346,12.3257 c-8.7453-4.4209-10.7454-8.6089-10.7454-22.4985C356.7484,4471.4307,357.5858,4470.2163,367.4938,4471.5942z M441.6908,4541.2705 c8.4358-2.9404,14.8788-3.1563,17.4519-0.5835c6.9279,6.9282-2.6685,182.957-12.1432,222.7632 c-3.252,13.6587-11.3614,12.0322-26.7702-5.3726c-11.7171-13.2358-13.6228-19.0479-15.8464-48.3545 c-3.8106-50.1729-19.7-77.9995-19.6964-92.7832C384.6876,4602.6182,427.0617,4546.3706,441.6908,4541.2705z M418.6049,4457.3545 c-9.907,3.144-13.564-4.5278-11.6552-24.4541c1.34-13.9883,2.0526-14.4795,26.2906-18.1196 c13.7025-2.0586,25.6002-3.0239,26.4386-2.1489c1.8333,1.9111,3.7293,26.6123,4.5248,35.6445 C453.9537,4450.0522,428.585,4454.187,418.6049,4457.3545z M457.2392,4321.8149c-10.9584,13.6367-16.6785,17.1929-27.6527,17.1929 c-12.2922,0-14.0824-1.5586-16.0436-13.9692c-3.2362-20.479,5.7935-31.4858,30.7452-37.4712 c15.817-3.7959,23.6683-3.8818,30.3023-0.3306c10.2229,5.4702,12.0802,17.3833,2.7095,17.3833 C472.0776,4304.6201,457.2392,4321.0752,457.2392,4321.8149z M447.6921,4235.8442c0.7701,0-23.7705,0.0596-29.9823,2.4429 c-8.8723,3.4043-10.1442-1.063-8.1966-28.8037c1.6349-23.2881,2.2194-24.3115,15.3007-26.8164 c56.9922-10.918,71.625-18.8921,71.625,10.8159c0,13.3174-2.8553,20.0894-12.564,29.7974 C473.0373,4234.1182,468.0675,4235.8442,447.6921,4235.8442z M594.892,4222.9546c-5.0657,0-12.535-34.6367-16.6439-50.4307 c-5.2468-20.1626-10.9259-24.5205-37.7527-28.9644c-20.6115-3.4141-23.8236-11.8789-10.098-26.6118 c12.1021-12.9883,66.1793-14.7866,69.3552-11.3066C603.8506,4110.1318,599.5521,4222.9546,594.892,4222.9546z M550.2889,4217.4028 c6.0349,8.252,3.785,18.4468-4.0704,18.4468c-10.1473,0-23.9905,17.457-23.9905,30.2549c0,11.7017,3.9141,15.0942,14.9083,12.9229 c2.2897-0.4521,15.3458,0.4756,29.0127,2.062c22.1561,2.5723,24.8499,3.9468,24.8499,12.6816 c0,5.3882-2.4177,11.7529-5.3727,14.1431c-2.955,2.3906-19.5989,5.1201-36.9868,6.0654 c-29.9812,1.6299-31.8113,1.1963-35.4599-8.3979c-6.8135-17.9219-4.7431-81.1143,2.9078-88.7666 C525.0151,4207.8882,543.5646,4208.2061,550.2889,4217.4028z M578.2575,4365.0801c4.6508,8.6909,5.358,31.2876,1.4366,45.9199 c0,0.4307-1.6074,9.7637-11.7612,8.8071c-11.5322-1.0894-64.2228-3.2642-76.854-3.8145l2.4167-14.8945 C502.8595,4343.3799,569.0338,4347.8447,578.2575,4365.0801z M813.6381,3858.262c-84.3058-8.9844-115.8001-14.22-128.282,23.5989 c-4.0967,12.415-3.5689,16.5979,3.5048,27.7693c7.8376,12.3787,7.9641,14.9187,2.1544,43.1548 c-3.3947,16.5012-5.1765,32.5974-3.9603,35.7686c1.6234,4.231,18.3826,6.5999,62.9253,8.8948 c53.4528,2.7542,60.3901,3.9604,58.0185,10.0864c-1.5995,4.1313-5.5172,19.2166-5.0784,18.7778 c-4.7032,23.3057-23.7584,4.2378-105.301-3.0894c-42.8248-3.8479-44.7221-6.2173-42.7692-53.448 c4.3962-106.3262,1.3422-111.8682-4.4525-136.9875c20.5588-6.8491,76.2162-26.7566,97.9828-26.7566 c22.184,0,62.4284,7.481,67.4937,12.5461C820.6879,3823.3896,814.7709,3851.5571,813.6381,3858.262z M792.673,3938.137 c-12.8206,6.5417-36.8398,7.0486-40.6653,0.8594c-4.5857-7.4199,2.1486-34.1067,8.6074-34.1067 c3.2426,0,14.9214,3.8684,25.9522,8.5969C808.0739,3922.7056,809.7397,3929.4294,792.673,3938.137z M716.5452,4072.5188 c24.937,0,73.7841,10.7439,83.9896,18.4741c6.7629,5.1218,5.3727,37.5432,5.3727,46.8049l-22.3629-3.0757 c-35.9426-4.9434-85.5438-3.0654-108.7314,4.1162c-35.0171,10.8452-29.7203,13.6318-37.3907-48.0491 C657.4783,4084.0166,687.062,4072.5188,716.5452,4072.5188z M311.6218,4429.9663c7.696,1.1416,11.4149,6.6382,17.4697,25.8164 c4.231,13.4014,6.6403,28.3911,5.3538,33.3105c-3.2467,12.417-8.4904,11.2471-25.406-5.6685 c-10.8556-10.8569-14.5955-18.3169-14.5483-29.0127C294.5781,4435.4556,299.6675,4428.1929,311.6218,4429.9663z M229.7844,4764.4346c-18.3732-9.8335-28.1186-5.2163-43.285,20.5063h0.0011c-13.5011,22.8984-15.8369,24.8081-31.784,25.9844 c-31.91,2.355-36.0444-15.3564-13.181-56.4482c21.6525-38.9126,66.8604-168.0645,81.5562-182.7603 c24.3577-24.3579,43.7493-0.1309,67.4801,23.6001C250.2047,4752.4775,246.0153,4773.1216,229.7844,4764.4346z M268.065,4756.832 c10.8058-21.4756,25.1599-76.6641,35.5439-113.271c6.3853-22.5078,11.7329-31.8364,25.2602-44.0562 c9.4379-8.5273,21.0229-15.5034,25.7439-15.5034c10.0686,0,10.9196,11.4434,4.1596,55.8765 c-9.1168,59.9214-16.8999,132.3262-16.9818,157.9575c-0.0976,30.7515-0.1711,30.7861-42.7057,20.5059 C262.1078,4809.4028,251.8482,4789.0576,268.065,4756.832z M1207.7069,4981.5825c-306.5843,0-923.3428,0.2173-929.6185-7.9121 c-5.0257-6.5093,0.8784-114.6367,1.2928-124.2544c595.5756,1.5522,609.2057,1.9717,928.4055,5.2319 C1207.7451,4922.6016,1207.8018,4826.5342,1207.7069,4981.5825z M1229.8253,4623.9609 c18.6838,25.1133,20.7789,29.6665,35.993,78.2402c20.5706,65.6753,39.9916,101.127,49.9458,91.1714 c4.3257-4.3271-32.3744-87.7378-19.3287-95.8013c10.5199-6.5005,69.7394,47.876,75.0103,68.877 c4.4073,17.561-1.8022,40.418-12.9685,47.7344c-28.1909,18.4707-66.321,9.2373-112.4592-27.2319 c-40.3116-31.8638-51.2579-33.5342-87.124-13.2925c-19.7144,11.1255-28.4753,13.4321-51.0303,13.4321 c-14.9771,0-28.5389-1.3086-30.1376-2.9077c-4.0715-4.0688-11.42-115.7158-18.2263-147.9976 c-2.6718-12.6689-3.9756-25.3315-2.8983-28.1396c1.213-3.1606,23.1447-7.1763,57.5677-10.5439 C1188.9512,4590.1885,1207.9272,4594.5298,1229.8253,4623.9609z M1085.8591,4411.1416 c1.4315,40.458-20.0861,25.9575-10.8551,50.0103c2.02,5.2646,9.1125,6.7988,31.4146,6.7988 c50.1993,0,61.5649,22.2109,13.9146,27.1909c0,0.4312-17.9431,1.437-43.2709,5.4854c-15.957,2.5518-17.7195,1.855-21.6833-8.5713 c-9.1877-24.1646-21.5056-63.998-24.151-78.0996c-2.6565-14.1621-2.0006-15.1172,15.9744-23.2734 c20.2998-9.2114,31.9567-10.8379,35.5848-4.9678C1084.0547,4387.7651,1085.4368,4399.2065,1085.8591,4411.1416z M1083.0415,3311.7373c-0.9454,20.2043-29.5426,412.4844-34.845,669.4829c-3.5964,174.2578,3.7245,249.1812-0.7246,251.9448 c-3.8798,2.3979-30.3275,7.0156-36.5938,8.1914c4.3004-199.835,4.0498-397.9541,25.0409-542.7781 c4.8291-33.3176,6.2872-75.5083,5.571-161.1814c-2.0837-249.0911,37.2483-447.8433,20.1587-452.4727 c-5.8713-1.5906-5.7338,21.4009-15.0509,127.9604c-19.1246,218.708-20.3219,245.6936-17.0768,384.6865 c1.2219,52.3225-0.1422,77.906-5.7022,106.9639c-10.4051,54.3774-11.8601,121.5596-24.693,230.4426 c-18.5814,157.6938,1.0878,188.7219-27.8741,185.5911c-7.0176-0.7583-20.5884-4.8291-30.1586-9.0454 c-17.2871-7.6162-17.4361-7.8833-23.1661-41.6016c-3.1717-18.6655-6.3869-69.7195-7.1451-113.4531 c-2.644-152.5178-21.3058-195.7961-22.6541-338.8804c-0.298-31.5427-1.7309-59.2756-3.1853-61.6289 c-9.1559-14.8157-14.3899-527.2378-14.4219-527.6816c-0.0771-1.0637-2.3296,0.2554-5.0054,2.9314 c-9.5879,9.5874-9.4572,406.5818-3.8816,465.3545c6.0435,63.707,11.337,215.5466,17.4356,266.4868 c6.8208,56.9729-0.0992,91.1265,9.8992,293.5947c-26.4156-3.7288-54.9515-5.6814-60.0569-25.8813 c-2.9293-11.5901,1.3374-74.2061,12.1542-178.3752c9.1815-88.427-9.0435-64.5869-3.1895-123.9985 c2.0037-20.3323,0.9182-37.8535-3.4996-56.5049c-4.5396-19.1633-7.1115-63.9521-8.8319-153.8308 c-3.9409-205.8174-11.4053-75.3525-13.0157-391.1335c-1.6152-316.5425-19.255-431.1106-6.1828-644.7261 c4.8228-78.8176,1.5415-170.978-6.1629-173.094c-8.9174-2.449-11.2838,527.3735-2.7367,612.6763 c10.4408,104.1929-2.4442,309.7866,12.9932,478.0779c6.0858,66.3435,8.5491,125.3416,8.2563,197.7158 c-0.573,141.5627-2.4125,160.064-17.4078,175.0593c-23.0398,23.0386-46.2406,1.4917-118.8766,22.219 c-25.6757,7.3276-36.4432,8.7727-39.2429,5.2678c-9.9233-12.4114,12.7687-196.6948,3.2645-367.1846 c-5.2289-93.8027-2.488-190.0884,6.9992-245.8369c8.1389-47.8269,16.5442-355.5325,12.9145-472.7991 c-2.0452-66.0779-1.0997-102.0857,3.7808-143.9888c8.8503-75.9897,13.2828-182.6084,7.2374-174.0759 c-9.3359,13.1755-4.9405-93.343,12.5094-108.054c4.5972-3.8755,10.6116-16.4478,13.3657-27.938 c6.836-28.5137,17.2897-49.1638,26.6941-52.7295c4.3123-1.6353,7.6981-4.3279,7.5218-5.9836 c-0.8437-7.967,0.2839-8.0957,8.1965-0.9348c6.835,6.1858,9.7638,6.6714,14.8374,2.4602c6.9457-5.7644,23.927-2.3218,23.927,4.8508 c0,2.4954,4.1182,3.4331,9.2191,2.0991c5.4886-1.4355,20.5113,2.7095,37.1289,10.2441 c19.7694,8.9641,34.6315,12.655,50.9553,12.655c22.6126,0,23.0455-0.2368,23.0455-12.5796c0-16.6284,12.0545-18.9397,24.3803-4.679 c8.9898,10.4048,9.7878,10.5483,21.4908,3.8662c15.8547-9.0525,65.0854-14.1152,73.0427-7.511 c4.4986,3.7332,7.7232,3.2363,13.6175-2.0977c19.0333-17.2251,50.493-12.1057,45.5925,7.4192 c-1.2739,5.0759,0.6139,16.2419,4.1953,24.8137c9.8914,23.6733,22.7365,105.2549,28.7389,182.5227 c12.2102,157.2041-24.0638,132.8618-13.0226,402.9504C1115.1165,3128.8193,1101.9426,2907.8542,1083.0415,3311.7373z M1151.5033,3856.5356c-1.8632,10.1978-6.1763,35.46-16.2971,35.46c-7.3571,0-28.4265-23.9573-28.4265-32.3223 c0-9.1128,17.5872-19.2559,33.3875-19.2559C1154.3292,3840.4175,1154.4242,3840.553,1151.5033,3856.5356z M1183.9741,3763.0505 c-3.7111,0-52.7665-49.9558-54.9034-55.9116c-1.8967-5.2861,17.0132-10.3618,37.6515-31.8347 c22.7039-23.6201,26.0283-21.054,25.9738,20.05C1192.6847,3703.6423,1192.245,3763.0505,1183.9741,3763.0505z M1232.1517,3472.5298 c-3.0741,36.3523-3.2351,36.5408-28.6632,33.5999c-32.3822-3.7451-45.3806-9.7979-52.3284-24.3682 c-7.0696-14.8242-5.6587-29.3325,4.0044-41.1729c8.7689-10.7449,47.9578-33.999,62.0443-36.8164 c12.7692-2.5537,13.1753-2.1318,15.4655,16.0715C1234.84,3437.053,1232.1517,3474.9878,1232.1517,3472.5298z M1321.512,2069.5696 c23.8406,223.9873,35.5366,344.6899,40.8353,685.5586c6.6138,425.2754,27.9113,476.583,19.1003,485.3918 c-0.6093,0.6091-1.6775,2.0415-45.5447-23.2852c-6.8363-165.6162-9.6451-238.8655-12.3861-255.7942 c-4.1427-25.5808-2.9303-196.1533-11.0231-307.3196c-8.2585-113.4163,4.1593-374.5217-3.4565-449.1589 c-26.3799-258.4626-32.7338-427.2047-15.4351-409.906C1296.3608,1797.8121,1314.3638,2002.3979,1321.512,2069.5696z M1308.5902,1096.667c6.0658-6.0664,17.115,4.988,42.4093,42.4297c21.1765,31.3455,21.3014,31.7363,26.7067,83.402 c5.0139,47.9347,8.6846,60.2584,13.8594,46.536c3.3323-8.8336-8.2778-89.8604-15.8311-110.4944 c-8.0707-22.047-28.7252-55.5598-41.201-66.8494c-10.6136-9.6058-10.9097-14.9995-0.8226-14.9995 c21.4193,0,95.3871,103.4672,77.7764,169.25c-2.8496,10.6462-2.9707,18.1549-0.3347,20.7909 c6.6702,6.6708,9.4274-2.1595,12.2985-39.3845c2.8186-36.5575,6.7211-41.4954,20.6404-26.1144 c9.0386,9.9873,7.5249,38.0624-3.2126,59.5863c-13.5967,27.2539-22.3239,111.9772-53.0546,179.7048 c-16.9136,37.2727-27.9664,71.8417-46.6923,146.025c-22.9878,91.0686-58.4063,171.7344-96.6475,220.1124 c-70.2108,88.8241-60.9717,128.4814-113.6425,25.7587c-29.095-56.7426-35.3408-82.7351-29.4381-122.5054 c10.2303-68.9294-21.1964-104.5122,17.4465-162.0514c15.6198-23.2563,34.9301-35.6205,61.2972-39.2471 c16.932-2.3285,23.3667-1.4722,29.3044,3.9015c4.1843,3.7866,9.8734,6.8849,12.6421,6.8849 c27.8845,0-87.2605,128.0789-89.6997,217.0577c-0.8452,30.8134-0.4291,33.1534,5.547,31.1644 c3.296-1.0972,5.635-10.788,6.0505-25.0729c0.9581-32.9183,13.2949-66.9701,44.2515-122.1422 c18.9767-33.8198,96.9602-156.7458,99.4824-156.8141c1.4146-0.0377,5.6104,7.6677,9.3246,17.1234 c8.1031,20.6273,23.0659,24.9254,18.7069,5.3728c-6.6886-29.9985-15.4004-105.0975-15.476-133.4144 c-0.2003-74.6714,34.3112-39.1549-1.1061-116.9542c-23.0753-50.6866-24.5853-65.8866-5.2914-53.2445 c12.6139,8.2654,40.6995,46.4546,40.6995,55.3422c0,9.3899,7.2627,34.7191,10.9133,59.271 c7.6644,51.5303,27.7981-47.4551-21.7118-154.1267C1310.7865,1114.9614,1305.7234,1099.5333,1308.5902,1096.667z M1244.3217,1425.6378c0.0011-20.3146,31.5752-112.5469,38.5288-112.5469c4.2426,0,0.4906,95.3849,0.2246,114.646 c-0.094,6.7139-21.1326,31.4918-26.3479,31.4918C1251.3917,1459.2288,1244.3212,1440.0822,1244.3217,1425.6378z M1026.5042,1130.7375c21.0349,6.4011,31.7363,24.9222,16.8774,29.21c-4.1377,1.1936-22.5119,3.4854-40.8327,5.0925 c-27.6967,2.4303-33.3108,1.8636-33.3108-3.3632C969.2381,1147.4801,1009.6951,1125.6219,1026.5042,1130.7375z M906.1743,1119.0372 c4.1329-2.7893,27.9088,3.5153,34.1472,9.0548c4.2014,3.7306-11.3004,35.9995-14.4675,43.1592 c-8.4052,0-45.6755,1.1226-49.0045-4.2626C874.3257,1162.9045,897.6215,1124.8108,906.1743,1119.0372z M969.2381,1192.4021 c120.8376-18.7808,185.4916-20.8605,295.4689-64.5477c36.7318-14.5918,35.4904-14.3893,35.4904-5.785 c0,3.6816,4.9309,15.5269,10.958,26.322c16.3988,29.3727,12.407,35.96-10.29,16.9823 c-10.2706-8.5879-21.4232-15.6134-24.7843-15.6134c-3.3601,0-9.184,6.4463-12.9418,14.3259 c-6.5343,13.7035-6.3391,15.4034,4.4891,39.077c19.0228,41.5872,22.8204,61.1272,14.5237,74.7155 c-40.0881,65.652-53.9144,100.571-57.9524,146.3666c-2.7598,31.2939-7.9778,40.0929-28.5436,48.1351 c-97.246,38.0233-80.1051,48.0538-223.3812,75.5143c-109.1957,20.9282-226.3929,25.5426-342.5925,11.8722 c-123.9439-14.2798-145.1924-19.3933-266.6064-64.1599c-8.3393-3.0752-39.287-18.113-68.7708-33.4189 c-82.7494-42.9423-46.1578-22.6058-69.1171-154.0679c-11.6363-66.6354-9.7444-72.3969,23.7701-72.3969 c49.0179,0,30.7748-30.6965,41.116-57.8873c8.6446-22.7375-8.1577-34.3088-56.7766-39.0991 c-32.4241-3.1953-39.9019-8.4977-33.973-24.0907c6.5921-17.3391,14.031-21.0464,28.5898-14.2482 C444.7465,1201.6432,737.854,1228.3718,969.2381,1192.4021z M858.0664,1098.8455c4.4083,6.2751,8.0155,12.9354,8.0155,14.8007 c0,2.0981-25.0923,63.7036-39.7833,68.0955c-11.3362,3.3889-155.1393,6.9762-170.8272,4.2615 c-87.1945-15.0872-78.0232-3.1909-113.9016-35.9846c-25.0587-22.9049-33.229-34.6436-24.1122-34.6436 c2.4514,0,17.3984-12.0886,33.2175-26.8635c34.271-32.0112,51.2203-64.0245,55.6129-105.0466 c1.6853-15.7315,5.2993-28.6953,8.3246-29.8558c2.9393-1.1281,11.9553,1.6611,20.0354,6.1996 c22.0051,12.3594,71.0762,23.5082,89.1535,20.2552c18.3229-3.2971,50.6563-17.7357,62.7643-28.0278 c19.2515-16.3647,22.2726-14.3174,25.1893,17.0673C814.5416,999.0892,841.9734,1075.939,858.0664,1098.8455z M869.539,769.1757 c-8.919,5.6393-12.7413,12.9355-16.6045,31.699c-17.051,82.8086-58.9225,137.4828-118.4464,154.6603 c-21.9343,6.3303-33.4174,6.0973-55.3778-1.1213c-88.907-29.2252-91.9157-107.7838-137.0662-166.9351 c-18.0259-23.6158-33.8156-53.4764-31.6738-59.9016c1.9718-5.9228,55.7793-42.2189,65.5839-49.0156 c3.9314-55.3317,2.3295-67.8734,28.5331-81.424c6.5815-3.4031,17.0909-14.9334,23.3555-25.6227 c18.9535-32.3427,43.5107-29.0024,80.0289-58.1255c18.5679-14.808,27.6291-15.9807,31.4115-4.0641 c3.5914,11.3168,50.3057,56.1995,77.036,74.017c24.5204,16.3443,38.8934,40.6233,45.7022,77.1998 c3.0505,16.3868,9.4112,30.7877,19.3459,43.7986C902.8509,732.4765,899.6262,750.1519,869.539,769.1757z M533.5663,647.9485 c4.1943-50.301,7.0066-56.0903,47.644-98.082c39.6584-40.9796,49.2779-47.8854,86.3927-62.026 c46.8297-17.8423,34.6508,5.5144-14.6827,28.1574c-26.6642,12.2387-33.0254,17.55-50.7207,42.348 c-11.1285,15.5945-22.024,28.3536-24.215,28.3536c-8.1357,0-18.7216,23.1295-22.1887,48.4877 c-1.9675,14.3878-6.7578,29.6727-10.6436,33.9667C533.2872,682.2657,531.0469,678.1659,533.5663,647.9485z M919.1485,699.5193 c-8.5045,13.7603-33.6104-20.0154-39.9832-53.7906c-6.9646-36.908-15.115-49.2327-53.2712-80.5493 c-42.9623-35.2617-81.1443-90.2323-62.6735-90.2323c2.5269,0,16.5494,11.5114,31.1617,25.5812 c71.9279,69.2574,98.4739,70.3086,103.4814,109.8112C901.6443,640.16,921.939,695.0049,919.1485,699.5193z M1160.5057,432.4087 c-454.0815-2.1072-519.6144-2.2817-844.0569-4.857c-5.4315-6.9043-17.7268-21.8425-17.7268-25.979 c0-2.6224,885.4236-3.9907,885.4236,5.1776C1184.1456,412.8582,1165.1166,428.3546,1160.5057,432.4087z M1252.9165,351.8799 v29.4927c-693.9353-2.7738-763.5494-2.931-1019.2253-5.4231l2.7074-23.5004L1252.9165,351.8799z M771.476,316.2048 c-14.6528,10.4039-25.4585,12.4359-41.5914,7.8209c-28.6129-8.1855-42.0771-41.3148-39.1075-96.2236 c3.9351-72.7437,42.5179-114.6503,74.1981-80.5908c15.0405,16.1706,20.0669,34.8371,22.2769,82.7398 c2.4355,52.7644-1.8868,76.3912-15.7766,86.2536H771.476z M689.5357,152.347c-17.4435,25.9727-22.2401,46.7211-22.9075,99.0951 c-0.6616,51.8942-6.7949,54.8017-6.017,54.8017c-7.8398,13.9292-14.9313,12.055-32.527-8.5963 c-14.4434-16.9514-15.5798-20.2988-15.5798-46.4619c-0.0147-27.9948-14.3773-96.0016-22.3713-105.9354 c-6.1724-7.6687-0.2067-14.1664,12.9386-14.0913c16.3312,0.0929,20.7752,3.9629,30.9424,26.9481 c4.9299,11.1463,10.8315,20.2663,13.1149,20.2663c2.2823,0,10.7937-10.386,18.9136-23.0796 c13.3521-20.8728,29.4429-32.4782,34.249-24.7019C701.3074,132.236,696.4678,142.0255,689.5357,152.347z M589.1415,226.6132 c3.528,20.3864-8.8902,77.4867-18.7416,86.1718c-22.6011,19.9247-54.7461,7.8376-69.925-26.2927 c-17.1024-38.4532-19.1875-57.1208-10.5859-94.7797c9.5953-42.0121,20.0249-56.3799,41.4706-57.1292 c25.7681-0.9003,39.0561,12.0765,47.6545,46.5412C583.0604,197.3414,587.6178,217.8112,589.1415,226.6132z M903.3237,148.2272 c-20.0302,23.8047-30.1413,58.0568-30.7688,104.2312c-0.5115,37.6452-1.5882,42.9345-10.7176,52.6526h-0.0005 c-12.7523,13.574-17.6476,13.5278-34.1099-0.3242c-13.1726-11.0839-13.224-11.2985-13.224-54.8946 c0-31.4619-2.4734-52.2003-8.7963-73.7615c-12.2686-41.8348-12.2518-42.6911,0.8589-44.2084 c11.8892-1.3762,25.0325,11.5671,25.2255,24.8415c0.1144,7.8754,10.7205,20.3806,15.6932,26.8468 c24.8904-36.5029,37.0134-59.565,60.1167-50.6998C912.9688,134.9706,912.2191,137.6559,903.3237,148.2272z M932.2335,150.5127 c14.3878-14.3872,38.4559-14.9743,47.2726-1.1522c10.3572,16.2367,16.2425,68.1669,10.6909,94.3311 c-6.0422,28.4775-22.5958,61.8996-33.5658,67.7702c-15.093,8.0775-34.3602,5.2347-45.4225-6.7028 C884.0931,275.5013,896.2211,186.5256,932.2335,150.5127z M1009.4385,164.4565c-11.2098-39.9496,7.0575-47.6362,23.715-9.9794 c4.7678,10.779,11.2219,19.5978,14.3427,19.5978c3.1208,0,10.4832-7.8891,16.36-17.5311 c11.2875-18.5186,23.0823-27.5945,30.1697-23.2144c2.3961,1.4817-2.1638,10.5062-10.416,20.6157 c-19.3669,23.725-32.8444,65.3525-35.739,110.3915c-2.1008,32.6818-3.538,37.5377-13.6281,46.0506 c-13.5231,11.4092-19.1266,12.0482-26.6075,3.0353C993.8332,296.7903,1030.6938,240.2114,1009.4385,164.4565z M1142.9888,139.6896 c44.4266,0,27.2572,141.7315-19.9877,177.7656c-25.0707,19.123-41.808,13.213-50.4221-17.8039 C1054.3127,233.8811,1095.7729,139.6896,1142.9888,139.6896z M1278.7223,153.8591 c-19.0416,13.4706-47.6309,66.1306-56.4775,104.0303c-8.5786,36.7414-8.8923,49.8545-24.5277,59.0905 c-11.7759,6.9562-12.7791,6.9341-19.4414-0.4271c-8.928-9.8661-8.8273-12.7497,1.5131-43.4466 c14.8616-44.1152,8.0063-94.8005,3.2887-138.3391c22.432,2.198,27.5986,0.7301,32.9484,16.434 c2.5599,7.5134,6.0653,15.0488,7.7899,16.7462s11.8357-4.9336,22.4694-14.7351c15.0404-13.8636,22.6956-17.8207,34.473-17.8207 c8.3267,0,15.0981,1.4502,15.0479,3.2236C1295.7555,140.3874,1288.0679,147.2476,1278.7223,153.8591z M17.1916,103.1551 c-0.6541-55.6066-0.5331-80.0082,2.4188-81.8321c8.2527-5.1019,1106.2793,1.7357,1443.9165,2.3159 c0,53.1463-0.0001,33.5258,0.0005,86.6309C181.5096,107.5986,116.933,107.6888,17.1916,103.1551z"/> <path d="M939.3456,2228.6023c-27.8548,0,12.5078,54.145-6.2891,222.6094c-27.5086,246.5413-17.7435,357.7849-19.0351,879.1465 c-0.6577,265.4639,0.1068,282.2576,7.3267,282.2549c2.5326-0.001,2.1265-654.6506-0.4213-679.1106 c-0.0463-0.4443,1.2355-260.1492,18.858-432.1216c9.7543-95.1899,14.8943-223.0281,10.2208-254.1941 C947.8857,2233.0513,945.334,2228.6023,939.3456,2228.6023z"/> <path d="M1035.2953,2223.3901c-7.5292-12.1824-9.1263,9.8645-4.8922,67.5359c3.5907,48.9084,3.4501,82.1121-0.5831,137.5415 c-9.2172,126.6807-0.2152,214.9131-11.9155,303.3804c-5.9224,44.7827-4.1287,53.0208-4.1287,61.968 c1.7367,4.5259,4.5135,6.2026,6.5218,3.939c6.4601-7.282,17.7068-149.4807,16.6295-210.2546 c-2.0382-114.9968,14.4667-214.9395,5.89-306.7847C1040.0851,2251.4597,1036.7001,2225.6633,1035.2953,2223.3901z"/> <path d="M859.1079,2250.0933c-6.8935,0-11.6429,3.2798-14.004,9.6709c-3.905,10.5706-6.754,314.0564,0.3765,311.6794 c2.832-0.9441,4.9126-19.655,5.4058-48.6155c1.9807-116.3047,8.3046-237.7319,13.2524-254.4675 C869.4473,2250.4041,869.3617,2250.0933,859.1079,2250.0933z"/> <path d="M914.2994,2430.6165c8.1025,0-4.8362-183.9756-17.6964-188.2598c-8.1761-2.7239-3.2396,3.4653,3.9621,87.2527 C905.3041,2384.7375,907.7469,2430.6165,914.2994,2430.6165z"/> <path d="M688.3046,2306.3276c-1.783,2.0574-7.9539,58.2637-2.8264,42.6235 C688.9568,2338.3369,691.3094,2302.8606,688.3046,2306.3276z"/> <path d="M831.6315,2079.1731c7.9357,25.552-2.8291,45.8252-24.4986,46.1362c-12.5089,0.1794-19.2749-13.2571-17.6101-34.9741 c1.0114-13.1938-0.5687-18.6831-6.4331-22.3508c-11.0187-6.8918-20.1644,6.7212-20.1644,30.0151 c0,19.6018,14.6068,42.0811,31.8855,49.071l0.0003,0.0002c17.6203,7.1282,29.0171,4.2957,44.3299-11.0171 c15.014-15.0137,15.1583-15.5083,13.0656-44.7554c-1.6868-23.5759-5.369-35.5347-18.155-58.9622 c-25.0056-45.8171-33.434-45.0248-37.9619-57.9763c-4.7932-13.7094-34.0362-50.9282-40.0146-50.9282 C729.0477,1923.4316,807.3873,2001.1116,831.6315,2079.1731z"/> <path d="M737.2598,1108.0421c-6.9869,21.8556-39.0908,59.0768-32.2573,59.0768c3.3999,5.5007,31.7583-6.6204,44.0872-18.845 c13.4945-13.3798,17.0379-38.1174,7.5373-52.6174C748.1818,1082.7683,744.6093,1085.0527,737.2598,1108.0421z"/> <path d="M641.5021,1080.0641c-13.6516,2.8232-7.9033,13.4045,23.64,43.5127c24.7355,23.6106,31.9115,28.4177,34.7972,23.3115 C714.2741,1121.5232,672.4252,1073.6682,641.5021,1080.0641z"/> <path d="M722.2978,882.6094c-26.1981,1.6024-30.7937,9.2863-8.4471,14.1244c-0.4319,0,34.5013,8.8089,39.0899-3.1486 C756.7983,883.5328,749.5654,880.942,722.2978,882.6094z"/> <path d="M718.8687,833.7849c-36.5292-2.7126-41.9072-2.2462-41.9072,3.6329c0,3.7095,3.3847,8.7165,7.5218,11.1263 c7.7571,4.5175,76.1216,8.2918,79.9431-1.6674C767.8654,837.9151,765.5563,837.2519,718.8687,833.7849z"/> <path d="M697.3779,809.2897c0.4299,0,15.968,8.3748,22.0586,8.95c10.4448,0.9864,34.8925-16.9351,34.8925-25.5781 c0-9.7632-7.5131-10.4175-19.0886-1.6622c-9.5657,7.2354-26.4218,8.3529-30.3404,2.0127 c-1.4609-2.3642-7.3777-4.2982-13.1482-4.2982C675.9526,788.7138,678.9574,799.7017,697.3779,809.2897z"/> <path d="M566.866,723.832c-5.9493-4.9372-8.0963-4.3317-15.0436,4.2484c-11.6494,14.3849-7.8725,27.6805-5.2379,27.6805 c8.1053,8.1058,27.2214-3.201,27.2214-16.1013C573.8059,734.122,570.6825,727,566.866,723.832z"/> <path d="M853.1869,724.0387c0,2.253,2.2446,9.0224,4.9882,15.0436c5.66,12.4223,12.9454,13.9659,20.8678,4.4199 c4.4338-5.3423,4.018-8.0748-2.2889-15.0436C868.8208,719.6923,853.1869,716.7604,853.1869,724.0387z"/> <path d="M800.2664,638.2778c-18.4923,0-57.6714,19.6592-61.1744,30.6959c-4.0243,12.6804-0.4525,13.6306,15.77,4.1953 c16.2656-9.461,37.7066-12.1484,58.5671-7.3403c18.1678,4.187,17.7504,12.6569-1.0641,21.5848 c-11.9472,5.6692-19.4241,6.3355-36.4248,3.2452c-50.2576-9.1343-13.3988,16.1475-11.9401,16.1475 c27.8138,18.3145,76.2926-0.7556,76.2926-30.0117C840.2927,659.7203,818.0095,638.2778,800.2664,638.2778z"/> <path d="M651.1725,631.8305c-36.8655,0-62.4762,21.9521-45.4608,38.9669c3.3643,3.3647,9.9138,10.9437,14.5541,16.8432 c18.7726,23.867,43.9681,21.9762,67.639,3.9215C720.5653,666.6514,699.152,631.8305,651.1725,631.8305z M638.278,677.6581 c-29.4513-15.9492-17.679-29.7241,20.8718-24.4222c29.5022,4.0574,35.0386,8.3975,24.2591,19.0149 C670.3207,685.1411,655.3983,686.9292,638.278,677.6581z"/> <path d="M734.0493,178.1665c-21.3565,19.8969-24.6536,78.8352-6.0899,108.871h-0.0003 c11.1581,18.0547,21.2482,20.1639,33.2245,6.9452c6.6049-7.2904,8.4691-17.1135,9.6412-50.8094 C773.0285,179.8334,758.9576,154.9605,734.0493,178.1665z"/> <path d="M1121.7705,288.4258c22.6001-29.6302,37.3192-98.1444,23.9556-111.508c-8.6139-8.6142-27.1569,6.4021-40.7655,33.0118 C1078.8318,261.0198,1088.037,332.652,1121.7705,288.4258z"/> <path d="M330.7214,174.2713c-4.4178,3.6659-6.1157,14.0005-5.8838,35.7894c0.3794,35.5197,5.75,52.671,22.2716,71.1245h-0.0005 c15.6056,17.4288,23.673,16.7026,31.8496-2.8669C397.9124,232.9551,359.5961,150.3071,330.7214,174.2713z"/> <path d="M544.842,170.0917c-9.8052-4.4677-12.4501-3.8375-21.3791,5.0915c-5.6041,5.6036-12.9848,20.7028-16.4015,33.5532 c-5.4357,20.4447-5.4225,26.1007,0.1076,45.272c12.8869,44.6732,60.1886,79.2343,60.1886-15.2666 C567.3576,196.7732,561.0253,177.4655,544.842,170.0917z"/> <path d="M960.2983,277.7118c13.1362-18.4482,22.6326-63.8467,17.3543-82.9633c-9.1968-33.3077-28.2616-30.3957-45.3488,6.9279 c-12.6075,27.5383-18.316,72.3995-10.423,81.9098C931.0472,294.6312,950.3528,291.6788,960.2983,277.7118z"/> </g> </svg>