<?xml version="1.0" encoding="UTF-8"?>
<!DOCTYPE svg PUBLIC "-//W3C//DTD SVG 1.1//EN" "http://www.w3.org/Graphics/SVG/1.1/DTD/svg11.dtd">
<!-- Creator: CorelDRAW X7 -->
<svg xmlns="http://www.w3.org/2000/svg" xml:space="preserve" width="900px" height="1600px" version="1.1" style="shape-rendering:geometricPrecision; text-rendering:geometricPrecision; image-rendering:optimizeQuality; fill-rule:evenodd; clip-rule:evenodd"
viewBox="0 0 900 1600"
 xmlns:xlink="http://www.w3.org/1999/xlink">
 <defs>
  <style type="text/css">
   <![CDATA[
    .fil67 {fill:#071715}
    .fil18 {fill:#0B2911}
    .fil14 {fill:#14181A}
    .fil87 {fill:#180401}
    .fil28 {fill:#181B24}
    .fil39 {fill:#182826}
    .fil70 {fill:#270500}
    .fil68 {fill:#281504}
    .fil93 {fill:#283736}
    .fil69 {fill:#2C1B15}
    .fil95 {fill:#2F4A35}
    .fil92 {fill:#36524B}
    .fil33 {fill:#370400}
    .fil20 {fill:#371603}
    .fil88 {fill:#374746}
    .fil82 {fill:#460600}
    .fil90 {fill:#485756}
    .fil94 {fill:#4F1505}
    .fil96 {fill:#502B11}
    .fil51 {fill:#5E9687}
    .fil32 {fill:#64A989}
    .fil38 {fill:#65B58C}
    .fil79 {fill:#6D958A}
    .fil86 {fill:#6E382A}
    .fil74 {fill:#74AE93}
    .fil25 {fill:#9BC78B}
    .fil21 {fill:#9DC792}
    .fil31 {fill:#A3CD93}
    .fil55 {fill:#A6C99A}
    .fil17 {fill:#A8D497}
    .fil64 {fill:#A9C8A4}
    .fil43 {fill:#ADB3C5}
    .fil15 {fill:#B4BACC}
    .fil30 {fill:#B8BED1}
    .fil60 {fill:#BAD6D2}
    .fil26 {fill:#BCC2D4}
    .fil52 {fill:#BDC4D7}
    .fil7 {fill:#BDDDD9}
    .fil0 {fill:#C2E3DC}
    .fil19 {fill:#C3CADC}
    .fil44 {fill:#C6E2DC}
    .fil29 {fill:#C6E4DE}
    .fil61 {fill:#C97A66}
    .fil83 {fill:#C98877}
    .fil4 {fill:#C9E4DF}
    .fil1 {fill:#CAE5E0}
    .fil42 {fill:#CC6E4D}
    .fil50 {fill:#CCE3DE}
    .fil11 {fill:#CCE7E2}
    .fil57 {fill:#CDE3E1}
    .fil71 {fill:#CE7973}
    .fil3 {fill:#CEE8E3}
    .fil59 {fill:#CF9289}
    .fil91 {fill:#CFD3C9}
    .fil62 {fill:#D1E6E2}
    .fil37 {fill:#D1E9E3}
    .fil65 {fill:#D3E5E3}
    .fil54 {fill:#D4EBCA}
    .fil47 {fill:#D5DAE5}
    .fil13 {fill:#D5EAE5}
    .fil35 {fill:#D6ECE6}
    .fil40 {fill:#D77B66}
    .fil84 {fill:#D79787}
    .fil63 {fill:#D86C45}
    .fil56 {fill:#D88976}
    .fil24 {fill:#D8EEE9}
    .fil27 {fill:#D9744A}
    .fil16 {fill:#D98668}
    .fil48 {fill:#D99479}
    .fil41 {fill:#DA7957}
    .fil72 {fill:#DBF1EC}
    .fil89 {fill:#DDEAEC}
    .fil2 {fill:#E1EAEC}
    .fil53 {fill:#E4744D}
    .fil6 {fill:#E58363}
    .fil23 {fill:#E88869}
    .fil22 {fill:#E88B74}
    .fil76 {fill:#E9C797}
    .fil81 {fill:#E9C8A8}
    .fil85 {fill:#ED958C}
    .fil77 {fill:#EED7CE}
    .fil73 {fill:#EFB291}
    .fil66 {fill:#F0B8A6}
    .fil49 {fill:#F2CB8B}
    .fil80 {fill:#F4F4F4}
    .fil75 {fill:#F6D6B7}
    .fil58 {fill:#F7C9A9}
    .fil36 {fill:#F9BD75}
    .fil78 {fill:#F9D5AA}
    .fil12 {fill:#FAC786}
    .fil9 {fill:#FAFAFA}
    .fil34 {fill:#FBC47A}
    .fil8 {fill:#FBD3B4}
    .fil45 {fill:#FBD5BB}
    .fil46 {fill:#FBFAFB}
    .fil5 {fill:#FCDBC2}
    .fil10 {fill:#FDFDFD}
   ]]>
  </style>
 </defs>
 <g id="Capa_x0020_1">
  <metadata id="CorelCorpID_0Corel-Layer"/>
  <g id="_2212438375760">
   <path class="fil0" d="M594 923c0,7 0,2 2,4l0 -7c-1,0 -2,-1 -2,3zm12 10c-5,4 -5,16 -3,22l1 5c1,6 1,8 1,15l-7 -3c-6,-4 6,0 0,-1 0,0 0,1 0,1l-1 0 -6 0 -2 2c-1,0 1,1 -3,1 2,-7 -1,-4 8,-11 5,-3 -2,-2 5,-3l-7 -12c0,-1 0,-1 -1,-2 0,0 0,-1 0,-1 -2,2 -3,3 -7,2 1,-2 3,-3 -1,-7 11,2 2,-2 10,5l-4 -5c-3,-6 0,2 -1,-3 0,0 0,-12 -11,-9 0,0 -3,1 -3,1 7,-8 0,-8 0,-10 0,0 0,0 0,-1l3 -5c-1,0 -3,2 -4,2 -6,1 6,1 -2,0 -1,0 -2,-1 -3,-2 -4,-9 6,-16 8,-6 1,5 1,4 -1,8 1,-1 1,-1 1,-2l3 6c8,4 4,5 6,7 1,-6 0,-3 4,-8 3,10 -3,9 2,5l3 -9c4,-11 4,-8 8,-9 0,0 0,0 0,-1 -8,-11 11,-10 14,-8 -5,-1 -9,-11 -9,-12 1,-2 4,0 0,-2 -4,-2 5,0 -2,0 -7,0 5,1 -2,0 0,0 0,0 0,0 -4,0 -10,-1 -12,-3 3,2 3,7 3,12 -5,0 -8,1 -13,-2 -1,0 -1,0 -1,0 -7,-4 -6,-5 -7,-9 -3,-13 1,-6 1,-6l-9 1c-5,0 -5,-2 -5,13 -6,6 -7,-4 -7,15 -8,0 -4,-2 -5,2l12 0 0 7c-11,0 -14,-2 -25,-2l1 31c-11,0 -8,-2 -8,11 -16,1 -3,1 -12,7 -8,-5 1,-3 -6,-6 1,11 4,10 3,21 0,7 -2,3 8,14l11 -4c-2,5 2,8 -15,6 -3,0 -1,0 -4,0l-4 1c-7,1 -5,-1 -13,-2 -6,-1 -10,-17 -11,-23 -3,-11 0,-7 -4,-10 -10,1 -17,-4 -20,-5 -9,-3 -2,-1 -9,-7 1,-4 3,-5 2,-11 11,-1 8,1 14,-5 7,-6 4,0 10,-8 9,-12 6,-13 7,-29l8 -3c2,-8 2,-15 0,-22 -2,-10 1,2 1,-7 0,-11 -2,1 -2,-8 3,-3 3,0 8,-4 8,-5 1,3 4,-3 10,3 33,16 45,12 1,-10 -7,-5 -10,-16 7,-3 3,-4 8,1l20 18c5,6 9,13 13,14 8,4 12,-2 22,-1 7,6 17,15 17,29 0,11 -11,16 -13,31z"/>
   <path class="fil1" d="M421 1087c0,-1 -1,-1 -1,-1 0,0 -1,-1 -1,-1 -3,0 -3,0 -6,0 3,3 -1,1 3,2 6,2 4,0 5,0zm60 -130c4,3 1,-1 4,10 1,6 5,22 11,23 -4,7 -8,3 -15,7 3,6 -5,3 15,4 0,-5 1,-5 6,-4 -4,6 -3,0 -4,6 -1,4 -1,3 2,5 -6,0 -10,-2 -13,-7l-2 2c0,1 -1,1 -1,1 -3,4 0,0 -3,3 -3,-2 -1,-3 -3,-6 -3,4 -2,4 -5,6 -7,-2 -7,-2 -8,-9 3,-1 9,-4 14,-5 -3,-2 -7,-2 -11,-2 -18,3 -11,24 -10,17 7,1 8,2 15,0 2,10 4,5 5,11 -3,3 -4,1 -10,5 -1,7 0,15 2,22l9 1c1,8 -3,16 2,21 -5,4 -1,3 -8,5 0,0 -1,1 -1,0 0,0 -1,0 -1,1l-1 7 -9 3 0 -3c0,0 0,-1 0,-1 0,-1 -1,-2 -1,-2 0,-2 0,3 0,-3 0,-17 -4,-2 -2,-10l2 -4c0,0 0,-4 0,-4 2,-20 -3,-7 -5,-17 0,-1 0,-8 0,-10l-20 0 -4 -13c-2,1 -5,2 -7,3 -2,2 0,0 -3,3 -2,2 -1,1 -2,3 -3,6 -1,7 -6,15 -4,6 -8,8 -10,12 -4,7 0,7 2,12 5,-1 28,-2 22,8 -7,12 2,-9 -2,3 8,0 5,-2 14,-1 -1,12 -2,7 -3,8 3,-3 0,-2 6,-1l-3 5c0,0 -1,2 -1,1 0,0 -1,1 -1,2 5,-3 1,-3 5,0 5,2 1,-3 3,4 -7,0 -9,0 -15,-1 2,-5 7,-7 7,-7 -6,0 -11,4 -12,10 -8,-3 -8,-4 -16,-2l0 -1c0,0 0,-1 0,-1 1,-5 -1,-7 -10,-5 -2,0 -7,4 -8,4 -6,3 3,2 -4,1 -16,-4 12,5 -4,-2 3,-5 7,-4 8,-12 1,-7 -2,-5 -11,-5 -8,20 10,8 1,22l0 1c-1,0 -1,0 -1,0 -2,3 0,4 -4,6 -4,2 0,2 -6,2 1,1 4,2 0,3l-4 1c-14,1 -20,-2 -13,3 -6,4 -13,4 -20,2l0 -1c0,-2 0,0 0,-2 0,-3 -1,-4 -2,-7l0 -4c15,3 2,2 12,1l5 1c1,1 1,1 2,1 1,-3 -4,-2 9,-4 -1,-1 3,-4 -11,1l5 -4c6,-3 -3,1 3,-1 0,0 -1,-1 -1,0l-10 -4c5,-5 -1,-4 6,-4 9,0 3,1 5,5l2 -7c0,-1 1,-1 1,-1 0,-1 1,-1 1,-1 0,-1 0,-1 1,-1l-15 -9c0,0 -1,-1 -1,-1 -2,-6 -5,1 1,-1l-4 -5c-6,-5 -6,-2 -13,-6 -2,4 -3,4 -7,6l2 4c5,8 2,5 7,8 -2,1 -1,1 -5,2 1,0 1,-1 1,-1l1 -2c1,-8 1,2 0,-3 -1,0 -2,-2 -2,-3l-10 -4c-5,-2 -3,-3 -7,-3 -3,10 16,15 -3,25l-3 -20c-3,-5 -2,-3 -3,-5 3,7 4,9 2,17 -3,-5 0,-12 -4,-18 -3,-5 -7,-7 -9,-14 7,-1 4,-1 7,2 4,-2 -2,-2 1,2l3 3c0,-1 1,0 1,0 0,0 -3,2 -1,-5 1,-7 -4,2 3,-4 3,4 1,3 6,5 -4,-1 0,0 -3,-3 0,0 -1,-1 -1,-1 0,0 -1,-1 -1,-1 -2,-3 -4,2 -1,-2 4,4 -6,0 2,-1l7 0c1,0 1,1 1,2l1 2c1,12 -2,4 -2,4 3,-1 6,-1 8,-2l3 -3c1,-1 0,-3 0,-5 6,2 4,0 6,5l4 -5c3,10 12,10 18,13l9 7c1,1 6,9 1,6l10 4c0,0 1,1 1,0 0,0 1,1 1,1 4,-4 3,-1 3,-7 7,0 1,1 3,-4l6 1 1 -5c6,5 4,7 3,9 1,-2 1,-5 3,-6 3,-4 1,-1 2,-1 0,-1 1,0 1,-1 0,0 0,0 1,0 -3,-4 -3,-8 -2,-13 4,-9 -1,0 6,-2 -5,-9 2,2 -1,-15l15 -3c1,-7 2,-4 -2,-8 11,0 3,-1 6,-4 -10,-2 -10,-10 -10,-20 1,-1 1,-1 2,-1l15 0 -1 -9c0,-2 -5,-2 -6,-2l-14 5c0,6 -2,4 4,6 0,21 -1,5 -9,16l-6 -6c-2,-4 -1,-3 -1,-8 7,-5 11,-2 8,-14 -5,-2 -3,0 -10,0 -24,2 -29,8 -33,4 1,0 1,0 1,0 0,0 1,-1 1,-1 10,-3 -1,-1 13,-3 8,-2 6,-4 6,-14l-9 -2c-3,1 -5,2 -9,2l-2 -11c12,0 10,4 20,3 14,-1 3,1 9,-4 5,-3 -1,-3 7,-2 1,3 1,-1 0,6 -2,16 -7,-4 -8,14 4,3 0,1 5,2 5,1 9,-1 9,-1l11 -1c4,-4 3,-9 6,-12 2,-4 0,0 4,-3 4,-2 -2,0 4,-3 9,-1 1,0 7,-3 2,7 0,4 -1,15l4 -4c0,-1 1,-2 1,-3l3 2c11,4 -2,2 -3,10 -1,5 2,16 18,2 2,-1 1,-1 3,-2l6 -2c4,-2 -2,1 2,-1l15 0c-2,-14 -2,-2 1,-11z"/>
   <path class="fil2" d="M299 734c-8,-2 -23,-9 -32,-6 -7,1 -3,0 -6,3 33,-2 48,11 61,29 7,10 13,17 19,26 7,9 12,19 19,28 -5,3 -4,1 -8,6 6,-2 11,-4 18,-4 -3,2 -26,14 -29,14 -1,-5 -13,-23 -21,-26 -2,-5 -17,-14 -22,-16 -5,-2 -6,-2 -9,-5 2,-4 8,-9 5,-16l-9 -15c-4,-5 -10,-5 -16,-4 -18,4 -18,-7 -20,13 -1,6 -2,4 -5,8 -3,5 -2,5 -1,9 2,5 10,23 15,26 4,1 21,2 25,-5 3,-7 -3,1 6,-12 11,3 25,13 31,18 4,4 13,15 16,21 -10,-6 -15,-10 -29,-10 -25,0 -41,15 -3,21 11,1 19,0 30,-1 -9,9 -19,13 -20,19 -5,2 -7,5 -10,8 -5,5 -6,6 -11,10 3,-9 5,-3 9,-13 -6,3 -3,3 -9,4 -9,-13 -23,-22 -31,-31 -3,-2 -3,-3 -6,-6 -7,-7 -3,-3 -5,0l-7 -7c-3,-3 -3,-5 -5,-8 -11,-19 -12,-26 -13,-48 0,-3 -3,1 2,-5 2,2 -3,3 2,2 2,-10 6,-17 11,-21 3,-3 6,-4 10,-6 2,-1 4,-2 6,-2 6,-3 2,-1 5,-4l-12 3c0,0 -2,-3 -2,-3 11,-3 12,-6 28,-5 11,1 17,4 23,11z"/>
   <path class="fil3" d="M504 845c-3,6 4,-2 -4,3 -5,4 -5,1 -8,4 0,9 2,-3 2,8 0,9 -3,-3 -1,7 2,7 2,14 0,22l-8 3c-1,16 2,17 -7,29 -6,8 -3,2 -10,8 -6,6 -3,4 -14,5 1,6 -1,7 -2,11 -4,-4 0,0 -2,-4 -5,-12 -3,-4 -6,-10 8,4 9,-1 9,-1l10 -9 -7 -14c-4,-6 3,-2 -5,-5 -6,-3 -11,-1 -8,8 1,2 2,-1 2,6l-1 4c-6,-2 0,1 -4,-3l-6 -10c2,-8 0,-8 -1,-16 -5,0 -7,1 -10,-2l24 0 0 -3c-9,0 -15,-1 -24,-2 -13,-2 -14,-2 -22,3l2 2c3,4 2,3 1,8 1,0 16,-1 17,8 0,9 -17,8 -18,8 -8,1 2,2 -7,3 0,-15 -1,-11 -4,-14 0,6 2,13 -1,17 -5,7 -6,3 -8,12 1,12 1,3 2,7l0 2c0,0 0,0 0,0l1 4c8,0 7,-2 13,-6 6,-4 2,1 10,-7 -2,7 0,6 11,6l2 9c6,-2 4,-1 8,-5 -3,5 -4,8 -5,13 -6,3 0,1 -4,3 -4,3 -2,-1 -4,3 -3,3 -2,8 -6,12l-11 1c0,0 -4,2 -9,1 -5,-1 -1,1 -5,-2 1,-18 6,2 8,-14 1,-7 1,-3 0,-6 -8,-1 -2,-1 -7,2 -6,5 5,3 -9,4 -10,1 -8,-3 -20,-3l0 -4 -5 2 -8 0c-1,-5 0,-3 -9,-3 -3,-3 -1,0 -3,-4 0,-2 0,-3 0,-4 -7,0 -11,0 -16,-3 2,-7 1,-4 10,-5 0,-4 -1,-1 1,-6 1,-3 0,-1 3,-4 0,0 1,0 1,1l2 1c3,1 -2,1 5,2 0,7 -1,10 3,13 4,-2 3,0 3,-13 10,3 -1,4 10,3 1,-3 1,-4 3,-6 3,-5 2,-3 3,-4 4,-4 -1,3 3,-4l6 1c1,0 1,1 2,1 -3,-2 -2,-4 -2,-9l6 -4c0,-1 1,-1 1,-1 6,-4 -3,0 4,-3 0,-13 -1,-12 7,-18 9,-8 6,-6 9,-4 4,3 -1,0 2,2 4,-7 0,-2 6,-5l2 -1c0,0 1,-1 1,-1l6 -1c6,6 13,6 21,6 4,-3 4,-1 9,-2 9,-2 10,-7 26,-8l2 -10 7 -1c2,-6 0,-7 -1,-12 -8,2 -1,5 -11,1 12,0 3,1 7,-3 14,-10 9,-16 1,-35 19,2 19,8 23,1 2,-7 -1,-19 2,-28 4,7 1,22 -1,32 -2,14 2,19 5,30z"/>
   <path class="fil4" d="M291 1023l-2 -7c-1,3 -2,6 2,7zm73 -106c-4,7 1,0 -3,4 -1,1 0,-1 -3,4 -2,2 -2,3 -3,6 -11,1 0,0 -10,-3 0,13 1,11 -3,13 -4,-3 -3,-6 -3,-13 -7,-1 -2,-1 -5,-2l-2 -1c0,-1 -1,-1 -1,-1 -3,3 -2,1 -3,4 -2,5 -1,2 -1,6 -9,1 -8,-2 -10,5 5,3 9,3 16,3 0,1 0,2 0,4 2,4 0,1 3,4 9,0 8,-2 9,3l8 0 -11 13c-6,2 -6,1 -9,0 2,0 2,3 1,7 0,0 0,1 0,1l-1 3c-9,13 -3,-7 -4,3l4 10c0,1 0,1 1,1l2 3c0,-5 0,-5 4,-8 -4,11 2,6 10,14l1 -3 4 6 -5 8c0,0 -2,-1 -2,-1l-3 -1c-16,-1 -12,-3 -13,6l2 7 -11 0c-3,15 -4,11 -8,13 -6,-3 6,5 -4,-3 0,-1 2,-2 -4,-3 -5,0 -1,5 -4,0l-2 12c-2,4 5,5 -3,2 -4,7 2,3 -3,2 -3,-1 -4,-2 -5,-4 -3,-5 -2,-8 -2,-14 0,0 -1,0 -1,0 0,1 -2,0 -3,0 -6,-2 3,7 -3,-2 -2,-4 0,0 -1,-9 0,0 0,-1 0,-1l5 -4c1,-3 0,-4 0,-5 0,-1 -1,-1 -1,-2l-1 -3c0,-5 1,-3 3,-5 2,3 2,-1 2,4 0,7 2,0 -2,8 0,0 1,-1 1,-1 2,4 2,-1 3,-1 1,-1 -2,-8 5,1 3,5 1,-3 2,4 1,-2 4,0 0,-7l-3 -2c-6,-3 -1,7 -2,-1l11 -5c6,6 0,13 16,13 6,-5 8,-9 6,-20 -2,-11 -5,-13 -11,-20l-7 0c7,-3 4,-7 4,-16 0,1 1,0 2,1l3 2c5,2 7,9 7,-1 0,-7 -6,-3 -9,-8l-23 17c-2,5 5,4 -4,8 -3,0 -2,-2 -5,-4l-8 -4 4 -6c3,-4 -2,-3 6,-3 0,0 -1,-2 -1,-1l-3 -3c0,0 -1,-1 -1,-1 0,0 -1,-1 -1,-1 8,5 12,0 12,0 2,-1 1,-2 1,-3l2 -8c1,-1 2,-2 2,-2 1,1 2,-1 2,-1 0,-1 1,-1 1,-2 -4,-2 -3,-2 -6,-6 21,4 13,1 23,-3 0,-10 1,-9 -2,-16 -2,-4 -3,-8 -4,-13 -3,0 -7,0 -10,-1 -5,-1 -6,-4 -6,-6 3,-2 6,-1 8,-5 2,-2 1,-5 0,-7l-3 -2c5,-7 9,-12 15,-15l9 -1c5,-10 -5,4 3,-3 1,-2 1,0 2,-2 3,-8 1,-1 -1,-3l2 1c7,7 -1,-2 -2,6 -1,11 1,2 3,3l0 1c13,-2 1,-1 3,1 3,2 1,13 2,24l11 0c1,9 0,6 11,7 5,0 12,-1 17,-1l0 13c-11,1 0,1 -9,12z"/>
   <path class="fil3" d="M555 1009c4,-3 1,1 4,-5 -3,1 -2,0 -4,5zm-7 -11c2,0 1,2 3,-2 3,-5 -1,-3 -1,-4l-2 6zm66 18c-3,5 1,-5 0,3 0,6 1,1 0,6 -3,-9 -5,-2 -5,-2 -4,2 -4,2 -6,4 -6,-6 2,-1 -2,0 0,0 -3,1 -5,2 3,-4 3,-6 9,-4l-11 -4c5,0 4,1 0,5 -5,6 -5,-2 -4,-5l0 1c-4,-1 2,3 -2,-1 1,-4 0,-4 0,-11 1,3 5,8 -6,11 2,1 1,2 2,4 0,0 0,0 0,1 0,0 1,2 1,3l-8 0c0,0 0,1 -1,1 2,-11 5,-7 1,-13l-2 8c-4,7 -2,8 -1,12 -5,-3 -5,-3 -3,-9 0,-3 -7,0 -8,0l-3 1c-2,-4 3,-7 -5,0 2,3 -1,0 4,2 -3,2 -2,2 -7,1 3,5 2,3 4,3 5,2 6,1 8,6l1 2c2,6 2,-7 1,6 1,-1 3,-2 4,-3 2,2 -2,4 3,1 4,5 -8,3 4,4 -3,2 -2,1 -2,4 4,-6 1,-2 8,-4 -1,15 -3,11 -11,7l0 9c0,6 -5,-6 0,2 0,0 1,1 1,1l2 1c-2,0 -2,2 -3,3 -2,-2 1,1 -2,-1l-4 -4 -3 -1 -3 4c-1,7 -1,1 1,4l-3 5c0,0 0,0 0,0 -2,-2 0,0 -3,-3 0,0 -2,-1 -2,-1l-7 -8c4,-2 3,-3 3,-4 1,-5 -1,-10 -3,-13l-9 -11c-6,-8 -4,-1 -10,-8 0,0 -2,-2 -2,-2l1 -10c-10,-1 -13,2 -12,10l11 0c-3,3 -11,9 -1,5 -1,6 -2,8 1,13 6,10 3,0 4,3 -9,1 -4,0 -8,3 -9,-9 9,2 -2,0 -5,-2 -6,0 -6,3l-3 -3c0,0 0,-1 -1,-2 -1,-3 4,-9 -1,-9 0,0 0,0 0,0 4,-6 1,-8 5,-14 -7,0 -17,1 -22,-1l-17 -5c-3,3 -1,0 -1,6l0 11c2,1 2,1 3,2 2,2 1,0 3,4l-9 -1c-2,-7 -3,-15 -2,-22 6,-4 7,-2 10,-5 -1,-6 -3,-1 -5,-11 -7,2 -8,1 -15,0 -1,7 -8,-14 10,-17 4,0 8,0 11,2 -5,1 -11,4 -14,5 1,7 1,7 8,9 3,-2 2,-2 5,-6 2,3 0,4 3,6 3,-3 0,1 3,-3 0,0 1,0 1,-1l2 -2c3,5 7,7 13,7 -3,-2 -3,-1 -2,-5 1,-6 0,0 4,-6 -5,-1 -6,-1 -6,4 -20,-1 -12,2 -15,-4 7,-4 11,0 15,-7 8,1 6,3 13,2l4 -1c3,0 1,0 4,0 17,2 13,-1 15,-6l-6 -4c7,2 5,-1 7,-7l1 4c0,1 -2,4 -2,4l5 -3c2,0 0,0 3,-1 5,-1 1,0 6,-2l3 -3 3 7c4,0 0,-2 3,0 -1,8 -1,0 -1,5l0 7c0,1 0,2 0,3 0,4 1,0 -1,5 4,-3 -2,-3 8,-1 -7,-7 -4,-2 -3,-5 5,2 1,0 5,4 6,6 11,13 13,13l1 -1c6,-1 5,10 6,-7l1 -12c-1,10 2,11 5,18 5,-10 3,-3 3,-13 3,12 -4,6 7,11 0,-4 -1,-9 -1,-13l-1 -22 1 0c0,0 0,-1 0,-1 6,1 -6,-3 0,1l7 3c0,-7 0,-9 -1,-15l-1 -5c-2,-6 -2,-18 3,-22 -1,14 3,28 2,44 -1,9 -3,13 0,22 2,7 5,10 6,17z"/>
   <path class="fil3" d="M293 938c-1,-7 0,-5 -4,-9 -11,3 -9,13 2,17 0,1 1,2 -1,3 0,0 -4,5 -12,0 0,0 1,1 1,1 0,0 1,1 1,1l3 3c0,-1 1,1 1,1 -8,0 -3,-1 -6,3l-4 6 8 4c3,2 2,4 5,4 9,-4 2,-3 4,-8l23 -17c3,5 9,1 9,8 0,10 -2,3 -7,1l-3 -2c-1,-1 -2,0 -2,-1 0,9 3,13 -4,16 -10,7 -6,17 -4,27l-11 5c1,8 -4,-2 2,1l3 2c4,7 1,5 0,7 -1,-7 1,1 -2,-4 -7,-9 -4,-2 -5,-1 -1,0 -1,5 -3,1 0,0 -1,1 -1,1 4,-8 2,-1 2,-8 0,-5 0,-1 -2,-4 -2,2 -3,0 -3,5l1 3c0,1 1,1 1,2 0,1 1,2 0,5l-5 4c0,0 0,1 0,1 1,9 -1,5 1,9 6,9 -3,0 3,2 1,0 3,1 3,0 0,0 1,0 1,0 0,6 -1,9 2,14 1,2 2,3 5,4 5,1 -1,5 3,-2 8,3 1,2 3,-2l2 -12c3,5 -1,0 4,0 6,1 4,2 4,3 10,8 -2,0 4,3 4,-2 5,2 8,-13l11 0 -2 -7c1,-9 -3,-7 13,-6l3 1c0,0 2,1 2,1l5 -8c3,3 3,3 8,4 -11,17 -1,4 -1,29 -5,5 6,3 -5,4 4,3 2,5 3,12 7,4 6,3 7,10 4,-4 -2,-1 -1,3 3,12 7,0 10,0 0,6 1,3 -3,7 0,0 -1,-1 -1,-1 0,1 -1,0 -1,0l-10 -4c5,3 0,-5 -1,-6l-9 -7c-6,-3 -15,-3 -18,-13l-4 5c-2,-5 0,-3 -6,-5 0,2 1,4 0,5l-3 3c-2,1 -5,1 -8,2 0,0 3,8 2,-4l-1 -2c0,-1 0,-2 -1,-2l-7 0c-8,1 2,5 -2,1 -3,4 -1,-1 1,2 0,0 1,1 1,1 0,0 1,1 1,1 3,3 -1,2 3,3 -5,-2 -3,-1 -6,-5 -7,6 -2,-3 -3,4 -2,7 1,5 1,5 0,0 -1,-1 -1,0l-3 -3c-3,-4 3,-4 -1,-2 -3,-3 0,-3 -7,-2 -6,-4 -15,-28 -17,-38 -9,-41 -6,-100 23,-134 3,-3 0,-1 3,-2l3 2c1,2 2,5 0,7 -2,4 -5,3 -8,5 0,2 1,5 6,6 3,1 7,1 10,1 1,5 2,9 4,13 3,7 2,6 2,16 -10,4 -2,7 -23,3 3,4 2,4 6,6 0,1 -1,1 -1,2 0,0 -1,2 -2,1 0,0 -1,1 -2,2z"/>
   <path class="fil5" d="M570 630c-4,-9 -14,-12 -17,-3 5,-2 2,-6 14,1l3 2zm-1 -57c1,9 0,1 -2,4 0,0 0,-1 0,-1l-4 -7c0,0 0,0 0,0l-5 -3c-3,3 -1,-5 -3,5l-2 -6c0,0 0,-1 0,-1l-2 3c-1,2 -2,3 -2,3 -4,4 -6,2 -8,5l0 1c0,4 0,1 1,4 1,2 2,6 3,7 2,4 7,4 13,5 1,4 1,5 2,9 8,-5 9,2 14,7 4,5 5,4 5,18 5,4 11,3 9,13l-8 1c-8,-4 7,3 -3,-3 -5,-3 3,0 -5,-2l-2 -3c-5,-3 -14,-4 -19,-1 0,0 -5,0 -4,9 0,5 -1,1 1,5 0,1 1,15 -11,11 -4,-1 -5,-4 -9,-6 -5,-1 -5,1 -9,0 1,0 2,5 1,-2 -1,-5 0,-3 -3,-6l-4 -2 -1 7c-6,8 -5,-5 1,-10 -4,0 -7,0 -10,-1 -7,-3 -5,-2 -7,-5 -2,4 -2,5 -7,8 -2,-5 -4,-9 -6,-15 0,-1 -1,-7 -1,-8 0,-6 -3,-7 2,-6 1,6 2,12 10,13l10 -3c5,-3 3,-3 3,-4 0,-1 0,-1 0,-1l0 -3c4,-3 1,-1 4,-2 5,-1 -1,-4 3,1 -4,3 -4,-2 -3,8l5 -6c4,3 4,5 10,7 -4,-5 -4,-7 -11,-10 -2,-3 0,6 -1,-2 0,-1 0,-1 0,-2l6 0c8,0 3,0 6,-1l-2 -9c0,-6 1,-4 2,-12 -2,0 -4,-1 -5,-2l-7 -10c0,0 -1,-2 -1,-2l-13 -2 -10 11c4,7 1,3 1,6 2,7 1,2 7,9 2,3 2,-2 2,4 -1,0 -1,1 -3,1l-5 1c-2,-5 -3,-6 -10,-8 2,-7 3,-12 6,-17 3,-6 5,-9 7,-14 4,-2 11,-9 15,-13 6,9 2,17 16,21 14,4 22,-3 27,-9 9,4 15,4 16,13z"/>
   <path class="fil6" d="M718 800c9,5 22,8 33,13 22,11 24,20 27,16 5,10 -8,27 -13,32 -5,-7 -15,-11 -20,-17l4 -8c1,-2 1,2 0,-2l-2 -5c-7,-1 -2,1 -11,-3 -1,-2 0,-12 -2,-9 0,0 -1,-1 -2,-2 -6,-3 -5,-3 -10,-2 -7,1 1,1 -17,3 0,1 -1,2 -1,2 -1,1 -1,2 -2,2l-1 2c-5,-1 -3,-3 -7,-4l-10 6c-11,5 -7,6 -9,10 0,0 0,0 0,1 -8,13 -4,-5 -4,4l2 4c-21,-5 -53,-13 -63,-27 -1,-4 -3,-7 -5,-9 0,0 -6,-4 -8,-2 3,-7 5,-4 9,-11 2,-5 2,-9 7,-11 -1,-4 0,-5 -3,-3 11,-5 -6,0 16,1 5,1 12,6 15,2l-9 3c0,0 0,1 0,1 0,0 0,0 0,0 -1,2 0,1 -3,3l10 0c7,0 7,-1 7,-2l4 0c0,0 1,0 1,0l5 1c-7,-1 -12,0 -18,4 1,2 -1,10 11,10 -1,5 -4,8 5,12 10,4 4,4 8,8 1,-1 3,-5 4,-6 2,-2 4,-2 5,-3 6,-1 6,1 10,-10 -7,1 -6,2 -8,7 6,-9 3,-10 8,-12 5,-1 1,-5 4,1 5,-1 3,-1 5,3 19,-7 19,0 24,-1l3 -2c0,0 0,0 1,0z"/>
   <path class="fil7" d="M569 930l0 4c1,0 4,-2 0,-4zm15 18c-7,0 -4,-1 -9,2 6,3 2,0 3,5l1 8c1,-2 0,0 -1,-3l-3 -8c0,7 1,8 -1,14 -2,-1 -7,3 -5,-10 0,-5 0,-1 2,-3l6 -3c-8,-5 -7,4 -13,-1 0,0 -1,-1 -1,-1 0,23 1,15 -5,18 -5,-7 -4,-8 0,-16 -3,4 -4,-5 -2,9l-7 3c0,0 0,0 0,0 1,6 3,-2 1,7 -9,-2 -9,-5 -10,9 -3,1 -1,1 -3,1l-5 3c0,0 2,-3 2,-4l-1 -4c-2,6 0,9 -7,7l6 4 -11 4c-10,-11 -8,-7 -8,-14 1,-11 -2,-10 -3,-21 7,3 -2,1 6,6 9,-6 -4,-6 12,-7 0,-13 -3,-11 8,-11l-1 -31c11,0 14,2 25,2l0 -7 -12 0c1,-4 -3,-2 5,-2 0,-19 1,-9 7,-15 0,-15 0,-13 5,-13l9 -1c0,0 -4,-7 -1,6 1,4 0,5 7,9 0,0 0,0 1,0 5,3 8,2 13,2 0,-5 0,-10 -3,-12 2,2 8,3 12,3 0,0 0,0 0,0 7,1 -5,0 2,0 7,0 -2,-2 2,0 4,2 1,0 0,2 0,1 4,11 9,12 -3,-2 -22,-3 -14,8 0,1 0,1 0,1 -4,1 -4,-2 -8,9l-3 9c-5,4 1,5 -2,-5 -4,5 -3,2 -4,8 -2,-2 2,-3 -6,-7l-3 -6c0,1 0,1 -1,2 2,-4 2,-3 1,-8 -2,-10 -12,-3 -8,6 1,1 2,2 3,2 8,1 -4,1 2,0 1,0 3,-2 4,-2l-3 5c0,1 0,1 0,1 0,2 7,2 0,10 0,0 3,-1 3,-1 11,-3 11,9 11,9 1,5 -2,-3 1,3l4 5c-8,-7 1,-3 -10,-5 4,4 2,5 1,7z"/>
   <path class="fil8" d="M569 573c3,3 6,8 11,11 5,4 9,5 16,5 0,0 0,0 -1,0 0,0 -1,0 -1,1 0,0 -1,0 -1,0 0,0 -1,1 -1,1 0,0 0,0 -1,1l0 3c0,7 -1,12 3,18 2,6 3,10 5,15 4,8 7,9 9,12l-3 13c4,1 5,3 10,3l-5 1 -5 2c0,0 1,2 1,2 -5,1 -9,6 -14,9 -3,2 -6,3 -10,4 -6,2 -5,0 -8,4 -2,-1 -3,-2 -5,-3 -2,2 -1,-1 -1,2l-16 3 -2 -3 -28 -6c-8,-7 -19,-5 -33,-32 5,-3 5,-4 7,-8 2,3 0,2 7,5 3,1 6,1 10,1 -6,5 -7,18 -1,10 4,2 0,0 6,2l-1 -7c3,3 2,1 3,6 1,7 0,2 -1,2 4,1 4,-1 9,0 4,2 5,5 9,6 12,4 11,-10 11,-11 8,5 8,15 20,11 9,-2 15,-6 12,-16l8 -1c2,-10 -4,-9 -9,-13 0,-14 -1,-13 -5,-18 -5,-5 -6,-12 -14,-7 -1,-4 -1,-5 -2,-9 -6,-1 -11,-1 -13,-5 -1,-1 -2,-5 -3,-7 -1,-3 -1,0 -1,-4l0 -1c2,-3 4,-1 8,-5 0,0 1,-1 2,-3l2 -3c0,0 0,1 0,1l2 6c2,-10 0,-2 3,-5l5 3c0,0 0,0 0,0l4 7c0,0 0,1 0,1 2,-3 3,5 2,-4z"/>
   <path class="fil9" d="M727 780l6 5c3,1 6,2 9,3 18,6 29,11 39,0 5,-6 8,-9 11,-16 1,-1 1,0 2,-2 1,-2 2,-3 2,-4 8,-15 13,-20 0,-22 1,-1 1,-4 2,-5l11 3c0,0 0,0 0,1l1 2c1,14 -2,12 -6,18l-1 2c-8,10 -7,11 -15,23 -5,8 -4,5 -2,14 -9,-2 -5,0 -12,0 -4,-1 -6,-2 -12,-2 2,4 2,6 6,7 0,0 0,-1 1,-1 0,0 1,0 2,0 -1,4 -1,2 0,4 0,1 1,2 2,3 3,2 6,2 8,3 4,2 3,0 4,6 2,12 -1,16 -1,24 0,7 0,12 1,19 -17,-4 -10,4 -23,1 1,-2 1,-3 3,-5 5,-5 18,-22 13,-32 -9,-9 -17,-13 -30,-21 0,0 0,-1 -1,-1l-14 -8c-6,-3 -10,-5 -15,-7 -22,-10 -60,-17 -85,-24 -11,-4 -12,-2 -16,-8 11,-8 23,-11 27,-24 3,-2 1,-1 4,-2 5,-4 -3,0 3,-1 0,31 3,18 9,34 4,0 4,0 8,1 1,0 10,5 19,-6 4,-6 5,-12 3,-20l6 0c2,7 2,6 6,8 0,0 2,1 2,1 0,-5 3,-10 6,-14 0,0 1,-1 1,-2 0,0 4,-3 4,-3l4 -3c1,0 1,-1 0,-2 -1,-2 -5,-4 -9,-4l-1 -8c9,3 16,7 16,18 -6,8 -16,7 -17,23 0,12 10,20 19,24z"/>
   <path class="fil10" d="M709 715l1 8c4,0 8,2 9,4 1,1 1,2 0,2l-4 3c0,0 -4,3 -4,3 0,1 -1,2 -1,2 -3,4 -6,9 -6,14 0,0 -2,-1 -2,-1 -4,-2 -4,-1 -6,-8l-6 0c2,8 1,14 -3,20 -9,11 -18,6 -19,6 -4,-1 -4,-1 -8,-1 -6,-16 -9,-3 -9,-34 -6,1 2,-3 -3,1 -3,1 -1,0 -4,2 0,-12 -6,-17 -12,-22 -6,-6 -12,-12 -21,-16l-8 -6c21,-2 42,1 60,6 11,2 42,12 46,17z"/>
   <path class="fil11" d="M333 856c1,-1 3,-1 4,-3 3,-2 2,0 2,-4 -5,2 -5,2 -6,7zm99 -8l8 0c2,5 0,3 3,6 -14,0 -4,2 -14,-6 0,1 1,1 1,2l4 5c6,7 -1,8 1,25 -8,0 -15,0 -21,-6l-6 1c0,0 -1,1 -1,1l-2 1c-6,3 -2,-2 -6,5 -3,-2 2,1 -2,-2 -3,-2 0,-4 -9,4 -8,6 -7,5 -7,18 -7,3 2,-1 -4,3 0,0 -1,0 -1,1l-6 4c0,5 -1,7 2,9 -1,0 -1,-1 -2,-1l-6 -1c9,-11 -2,-11 9,-12l0 -13c-5,0 -12,1 -17,1 -11,-1 -10,2 -11,-7l-11 0c-1,-11 1,-22 -2,-24 -2,-2 10,-3 -3,-1l0 -1c-2,-1 -4,8 -3,-3 1,-8 9,1 2,-6l-2 -1c2,2 4,-5 1,3 -1,2 -1,0 -2,2 -8,7 2,-7 -3,3l-9 1c2,-3 1,0 1,-4 7,-4 14,-11 22,-16 7,-5 14,-10 23,-14 0,7 -3,3 -8,8 1,4 3,4 5,5 -9,0 -5,1 -11,4l5 3c3,1 5,-3 7,-2 4,2 0,-3 1,1 1,3 0,3 1,8 1,2 2,3 4,7l13 1c7,1 7,0 9,-3 6,-9 0,-3 9,-8 5,1 3,3 7,3 3,-6 8,-5 13,-8 -2,-5 -4,-2 -6,-6 5,-3 10,-2 18,-2l-2 9c1,-1 1,-2 2,-1l2 4c0,-1 0,0 0,1l2 -8c0,14 -1,4 2,7z"/>
   <path class="fil12" d="M624 570c-2,3 -1,3 0,7 3,-2 2,6 2,-4 0,-4 -2,-3 -2,-3zm5 25c4,-2 1,3 4,-4 5,-12 2,-29 -13,-38 -8,-4 -14,-7 -16,-15 -2,-12 2,-20 -8,-24 7,14 3,14 6,26 2,9 8,10 15,14 16,10 18,20 12,41zm-54 -91c-4,1 0,-3 -3,2l6 3c-1,-2 -1,-2 -3,-5zm-3 -13c3,-5 1,-4 -3,-6l3 6zm-21 -38c-7,6 -4,15 2,18 9,4 17,-2 22,6 5,7 -1,14 6,21 5,5 14,5 21,8 23,10 8,25 15,36 7,12 19,9 26,29 6,22 -7,25 -9,44l-2 -2c0,-1 -1,-1 -1,-1l-22 -29c6,-14 7,-25 -5,-35 -16,-13 -31,4 -35,6 -14,-6 -10,-2 -14,-15 -3,-8 -8,-11 -16,-13l-11 -3c0,-1 1,-1 1,-1 18,-6 19,6 29,6 5,0 7,-2 14,0 6,1 7,3 9,10 7,-3 3,-5 7,-3 4,1 -2,-4 4,5 -1,-7 1,-8 0,-14l-1 -5c2,3 1,5 5,11 1,1 1,2 1,2 1,-1 1,1 2,1 0,-13 0,-18 -11,-23l-2 -1c-6,-7 -4,-2 -9,-10 -2,1 -2,-4 -2,3 3,4 4,3 7,6 1,4 3,2 -3,2 -2,3 0,2 -4,1 0,0 -1,-1 -1,-1l-8 -7 3 -6c2,-4 4,-2 2,-3 -5,-2 -6,-6 -7,-13l4 -5c-1,1 -4,1 -4,1 0,0 -1,0 -1,0 0,0 -1,0 -1,0l-15 -6c-1,0 -2,-2 -2,-3l-3 -9 -3 1c2,-5 2,-5 3,-10 2,-7 -1,-3 4,-6 5,2 3,1 5,7z"/>
   <path class="fil13" d="M461 1084c-3,2 -3,5 -3,9 -7,-2 -6,0 -12,-5 -4,-3 4,-1 -4,-3 6,2 4,2 7,8 2,4 -2,1 2,3l-5 2c0,0 0,2 -1,2 -13,-1 -39,-8 -49,1l1 5c0,1 0,6 -5,-1 -1,-1 -1,-6 -2,-8 -4,8 -5,5 -3,13 0,0 0,0 0,0 -2,6 1,-2 -3,0 0,8 0,3 -3,6 -6,0 -6,-2 -12,-3 -6,-1 -11,-1 -16,-2 -7,-5 -1,-2 13,-3l4 -1c4,-1 1,-2 0,-3 6,0 2,0 6,-2 4,-2 2,-3 4,-6 0,0 0,0 1,0l0 -1c9,-14 -9,-2 -1,-22 9,0 12,-2 11,5 -1,8 -5,7 -8,12 16,7 -12,-2 4,2 7,1 -2,2 4,-1 1,0 6,-4 8,-4 9,-2 11,0 10,5 0,0 0,1 0,1l0 1c8,-2 8,-1 16,2 1,-6 6,-10 12,-10 0,0 -5,2 -7,7 6,1 8,1 15,1 -2,-7 2,-2 -3,-4 -4,-3 0,-3 -5,0 0,-1 1,-2 1,-2 0,1 1,-1 1,-1l3 -5c-6,-1 -3,-2 -6,1 1,-1 2,4 3,-8 -9,-1 -6,1 -14,1 4,-12 -5,9 2,-3 6,-10 -17,-9 -22,-8 -2,-5 -6,-5 -2,-12 2,-4 6,-6 10,-12 5,-8 3,-9 6,-15 1,-2 0,-1 2,-3 3,-3 1,-1 3,-3 2,-1 5,-2 7,-3l4 13 20 0c0,2 0,9 0,10 2,10 7,-3 5,17 0,0 0,4 0,4l-2 4c-2,8 2,-7 2,10 0,6 0,1 0,3 0,0 1,1 1,2 0,0 0,1 0,1l0 3z"/>
   <path class="fil14" d="M481 656l-4 -16c-2,3 -3,6 -5,8 0,0 -11,7 -2,17 4,4 6,4 12,4 15,1 5,11 34,8 -3,-5 -4,-1 -2,-5 6,4 6,4 14,3l-6 -4c-29,-6 -35,-36 -41,-42 -1,15 -1,20 6,31 -4,-1 -2,-1 -6,-4zm-3 -24c5,-9 2,-7 1,-19l-7 7c3,4 4,7 6,12zm-2 -25c-4,4 0,1 -3,5 -3,3 -3,3 -5,7 6,-3 7,-4 8,-12zm-122 -39l-2 2c4,7 9,14 17,16l5 -4 -1 -14 -3 12c-9,-4 -1,-6 -8,-13l2 11c-7,-1 -9,-3 -10,-10zm44 -30c-3,-8 -37,-21 -49,-28 -6,-4 -11,-6 -17,-9 0,15 -5,23 -6,33 -5,4 -5,7 -9,11l-5 4c-2,2 -2,2 -4,4l26 11c3,0 11,3 13,3 7,0 -3,-2 5,-1 4,0 1,-2 2,2 1,0 1,1 1,1l5 4c-1,-11 1,-9 2,-10 6,5 3,4 7,13l1 -11c8,1 6,7 6,15 13,-5 20,-15 23,-28 1,-7 2,-10 -1,-14zm-68 -37c-1,-13 -5,-15 -15,-20 -8,-4 -14,-6 -21,-10 -12,-7 -35,-20 -46,-11 -12,6 -18,25 -21,41 -1,10 -2,20 3,28 4,7 11,8 19,11 23,6 49,20 64,5 12,-11 16,-28 17,-44zm164 60l1 0c-2,5 -4,8 -7,14 -3,5 -4,10 -6,17 7,2 8,3 10,8 1,7 -2,9 -8,10 -5,-1 -2,0 -2,6 0,1 1,7 1,8 2,6 4,10 6,15 14,27 25,25 33,32l28 6 2 3 0 2c-3,-1 0,-5 -11,-4l-4 1c-14,-4 -28,5 -40,1 -8,-3 -6,-7 -16,-9 -8,-1 -12,-2 -15,-7 -8,-15 12,-16 8,-34 -4,-21 -27,-10 -28,-10 1,-2 2,-2 4,-4 4,-3 1,1 3,-3 6,1 4,-3 5,1 4,-5 3,1 6,-6 0,-2 1,-9 1,-12 7,2 7,3 7,11 8,-8 4,4 16,-1 4,-8 -2,-10 -8,-13 -2,2 -4,6 -7,8 2,-11 9,-14 -5,-21 -6,-3 -15,-8 -22,-12 -9,-5 -37,-23 -43,-25 -6,17 2,16 -18,36 8,5 20,7 30,10 12,4 28,7 29,11 -11,-1 -33,-11 -41,-11 -4,-3 -1,-1 -7,-3 -12,-4 -15,-7 -22,0 -11,9 -2,22 5,27 16,13 32,4 43,19 7,9 9,7 11,11l-6 -1 -1 -2c-14,-19 -21,-13 -37,-19 -15,-5 -25,-15 -22,-33l-5 -1c-2,-3 -6,-6 -9,-11 -5,-6 -5,-5 -13,-8 -10,-3 -20,-8 -30,-12 -2,0 -36,-3 -67,-15 -39,-15 -12,-74 3,-83 12,-8 20,-3 30,2 82,35 43,30 64,41l39 22c36,18 6,5 38,25 4,2 9,5 13,7l47 27c3,4 0,2 3,6 2,-5 4,-11 6,-15 2,-4 6,-10 8,-12z"/>
   <path class="fil13" d="M494 1101c1,0 -1,1 3,1 2,0 3,-1 4,-1 -3,-3 -2,-3 -7,0zm24 -16c-12,4 -9,3 -11,7 3,-1 5,-1 7,-3 7,-4 1,-2 4,-4zm-33 -5c-2,-1 4,-2 -5,-2 -11,1 -3,1 -6,2 5,2 6,2 11,0zm36 -25c2,8 1,-6 1,3 -1,5 -1,-1 -1,4 0,6 -1,-2 1,3l-11 -1c-6,5 -7,7 -4,14 9,3 8,0 13,-2 2,0 4,-1 5,-1 5,-1 5,2 14,0 -1,0 -1,0 -1,1l-7 4c0,8 2,11 0,14 -6,9 -12,3 -7,7 -1,3 -1,4 -2,7 -1,-1 -1,-2 -2,-1 0,0 0,-1 0,-1 -1,0 -1,-2 -1,-2 -2,-4 -2,-2 -7,0 -3,6 -1,1 2,3 0,0 -1,1 -1,2l-3 3c5,1 2,-2 2,3 -2,1 -7,4 -12,4l-4 -5c-1,0 2,9 -15,3 3,1 4,0 8,-1 -3,-7 4,-6 -8,-5l3 -4c2,-4 1,-1 -1,-6 15,2 -1,3 6,2 0,-1 -1,-6 -1,-7 7,3 4,3 11,0 -1,-1 -2,-2 -2,-1l-3 -2c-3,-1 -4,1 -8,3 0,1 -1,1 -1,2 0,-5 0,-5 -3,-9 -2,-3 -1,-2 -4,1l-3 -3 -14 0c-1,-3 -2,-1 0,-3l9 -3 1 -7c0,-1 1,-1 1,-1 0,1 1,0 1,0 7,-2 3,-1 8,-5 -5,-5 -1,-13 -2,-21 -2,-4 -1,-2 -3,-4 -1,-1 -1,-1 -3,-2l0 -11c0,-6 -2,-3 1,-6l17 5c5,2 15,1 22,1 -4,6 -1,8 -5,14 0,0 0,0 0,0 5,0 0,6 1,9 1,1 1,2 1,2l3 3c0,-3 1,-5 6,-3 11,2 -7,-9 2,0z"/>
   <path class="fil13" d="M434 907l-4 1c0,10 -1,0 3,7l3 5c3,4 6,6 8,11 3,6 1,-2 6,10 2,4 -2,0 2,4 7,6 0,4 9,7 3,1 10,6 20,5 -3,9 -3,-3 -1,11l-15 0c-4,2 2,-1 -2,1l-6 2c-2,1 -1,1 -3,2 -16,14 -19,3 -18,-2 1,-8 14,-6 3,-10l-3 -2c0,1 -1,2 -1,3l-4 4c1,-11 3,-8 1,-15 -6,3 2,2 -7,3 1,-5 2,-8 5,-13 -4,4 -2,3 -8,5l-2 -9c-11,0 -13,1 -11,-6 -8,8 -4,3 -10,7 -6,4 -5,6 -13,6l-1 -4c0,0 0,0 0,0l0 -2c-1,-4 -1,5 -2,-7 2,-9 3,-5 8,-12 3,-4 1,-11 1,-17 3,3 4,-1 4,14 9,-1 -1,-2 7,-3 1,0 18,1 18,-8 -1,-9 -16,-8 -17,-8 1,-5 2,-4 -1,-8l-2 -2c8,-5 9,-5 22,-3 9,1 15,2 24,2l0 3 -24 0c3,3 5,2 10,2 1,8 3,8 1,16z"/>
   <path class="fil0" d="M442 815c0,10 1,14 6,21 -7,4 -15,3 -16,12 -3,-3 -2,7 -2,-7l-2 8c0,-1 0,-2 0,-1l-2 -4c-1,-1 -1,0 -2,1l2 -9c-8,0 -13,-1 -18,2 2,4 4,1 6,6 -5,3 -10,2 -13,8 -4,0 -2,-2 -7,-3 -9,5 -3,-1 -9,8 -2,3 -2,4 -9,3l-13 -1c-2,-4 -3,-5 -4,-7 -1,-5 0,-5 -1,-8 -1,-4 3,1 -1,-1 -2,-1 -4,3 -7,2l-5 -3c6,-3 2,-4 11,-4 -2,-1 -4,-1 -5,-5 5,-5 8,-1 8,-8 21,-13 57,-20 84,-19l-1 9z"/>
   <path class="fil15" d="M330 501c-1,16 -5,33 -17,44 -15,15 -41,1 -64,-5 -2,-5 -7,-6 -7,-7 -1,-1 -1,-1 -2,-1l4 0 4 0c4,0 -1,-1 3,0 1,1 0,1 6,2l2 -8c1,1 -3,3 3,1 7,-3 0,-17 21,-19l1 -6 1 -4c6,2 0,2 8,2 0,0 0,-1 0,-1l2 1c1,0 2,0 3,0 8,2 10,-1 14,-6 6,2 2,2 5,2 3,0 2,-2 8,2 4,2 -1,1 5,3z"/>
   <path class="fil16" d="M597 700l6 0c1,-7 3,-6 -6,-7l0 7zm134 76c-4,5 8,5 -3,2 -1,0 -1,-1 -2,-1l1 3c-9,-4 -19,-12 -19,-24 1,-16 11,-15 17,-23 0,-11 -7,-15 -16,-18 -4,-5 -35,-15 -46,-17 -18,-5 -39,-8 -60,-6l8 6c2,6 6,6 11,10 12,9 28,24 13,38 -1,-1 -1,-1 -1,-1l-2 -2c0,-1 0,-1 -1,-1 0,-1 0,-1 0,-2l-2 -4c0,-1 3,-1 3,-1l6 -1 -2 -9c-5,1 2,2 -6,-4l-4 -2c0,-1 0,-1 -1,-1l-7 -7c-6,-4 -4,-3 -3,-5 3,1 1,2 2,5 -3,1 -6,0 -6,0 -3,1 3,-4 -1,1l-3 3c-2,-5 -2,-5 -5,-9 -3,-4 -3,-2 -5,-6 -4,-2 -8,-4 -12,-7 -10,-4 -9,-1 -11,-6 4,-3 0,-1 7,-2 36,-4 81,3 114,14 32,9 61,34 43,50 -8,7 -16,5 -15,20 3,3 4,4 8,7z"/>
   <path class="fil17" d="M537 679c-6,3 1,-1 -3,4 8,2 -3,0 6,4 -3,-1 -5,-2 -10,-4 -8,6 -5,5 -14,4 -1,2 0,1 3,3 -5,0 -4,-1 -8,1l-1 4c-1,8 -1,-1 0,5l10 1c-8,-2 -20,-3 -27,0 -15,0 -19,-10 -29,-14 -11,-6 -24,-4 -24,-17l3 8c1,0 3,0 4,0 0,0 1,0 1,0 0,0 1,0 1,0l4 1 0 -15c-3,-12 -6,3 -5,-14l-6 1c0,0 0,0 0,0l4 -5c1,-1 1,-1 1,-1 0,0 -1,0 -1,0 -3,0 -5,2 -7,-6 0,-4 0,-9 3,-11l-5 -3c0,-1 0,-1 -1,-1 0,0 0,-1 0,-1l-6 4c2,-5 3,-5 1,-10 6,3 8,5 15,3 1,0 24,-11 28,10 4,18 -16,19 -8,34 3,5 7,6 15,7 10,2 8,6 16,9 12,4 26,-5 40,-1z"/>
   <path class="fil18" d="M620 1034c-6,3 -20,19 -20,31 5,-2 10,-8 13,-13 4,-5 9,-11 7,-18zm-73 -179c-10,-11 -13,-8 -20,-5 0,0 1,0 1,1l3 1c1,1 4,1 4,2 6,1 7,2 12,1zm-78 -126l3 -5c5,-7 5,-10 7,-18 -5,-2 -4,2 -8,-4 -4,-8 0,-2 4,-4l-6 -5 -13 22c-3,12 0,19 6,26 5,-13 0,-11 7,-12zm-29 -59c0,13 13,11 24,17 10,4 14,14 29,14 6,3 18,0 26,2 -7,5 -28,1 -36,0l-4 9c-1,9 -4,15 -10,17 -2,8 -5,6 -3,17 16,15 69,16 67,-4 2,-5 0,-9 1,-16 0,-3 0,-5 2,-7 3,-5 2,-3 2,1 -3,13 2,29 -10,33 -7,5 -18,7 -28,7 -1,5 -1,1 1,8 0,1 2,6 2,6 1,12 3,29 0,41 -1,13 -1,26 9,31 7,3 14,2 19,-1 7,-3 8,-5 10,-12 5,-12 -5,-20 -7,-29 -4,-16 8,-10 -5,-27l-2 -5c3,1 4,4 7,7 11,16 -6,20 7,32 3,12 2,14 3,26l9 4c1,4 12,12 20,22 5,5 3,8 11,10 5,0 12,-3 20,-3 7,7 8,6 13,17 5,10 4,13 5,23 -22,16 -11,44 -12,67 -1,16 -3,18 5,33 5,10 13,16 12,30 -1,3 -2,6 -4,9 -1,2 -3,5 -3,6 -3,4 -1,2 -4,3 1,-5 2,-3 4,-10 -2,2 -1,1 -3,3 -5,5 -18,26 -19,10 -1,-5 5,-11 7,-15 5,-6 7,-12 16,-15 5,5 1,1 4,7 0,-9 -5,-19 -11,-22 -1,-7 -4,-10 -6,-17 -3,-9 -1,-13 0,-22 1,-16 -3,-30 -2,-44 2,-15 13,-20 13,-31 0,-14 -10,-23 -17,-29 -10,-1 -14,5 -22,1 -4,-1 -8,-8 -13,-14l-20 -18c-5,-5 -1,-4 -8,-1 3,11 11,6 10,16 -12,4 -35,-9 -45,-12 -3,-11 -7,-16 -5,-30 2,-10 5,-25 1,-32 1,-6 0,-14 -3,-19 -3,-6 -9,-5 -16,-6 -4,-4 -10,-6 -13,-9 -7,-4 -8,-6 -11,-11 -11,12 -3,36 -4,45 -1,12 -5,9 -6,9 7,-11 3,-15 2,-28 -2,-13 3,-17 4,-27 1,-19 -9,-14 13,-47 -6,-2 -18,-5 -23,-6 -2,-4 -6,-9 -8,-17 0,-2 0,-7 0,-9 1,-8 0,-5 4,-7 -1,9 -4,13 1,19z"/>
   <path class="fil19" d="M398 538c2,11 -15,6 -18,7 -2,0 -5,5 -6,6 -1,1 -1,11 -7,5 3,2 5,1 9,3 -2,7 -1,2 -6,6l-1 11c-4,-9 -1,-8 -7,-13 -1,1 -3,-1 -2,10l-5 -4c0,0 0,-1 -1,-1 -1,-4 2,-2 -2,-2 -8,-1 2,1 -5,1 -2,0 -10,-3 -13,-3l11 -5c-14,0 -13,4 -15,-4 1,1 6,-4 7,-6 4,-4 -4,-1 6,-8 3,-3 1,0 4,-4 0,0 5,-5 5,-5 0,-1 0,-2 1,-2 1,-3 0,-7 -2,-9l-4 7c0,-7 2,-4 -1,-10 0,0 0,-1 0,-1 -2,3 -3,21 -16,28 -5,3 -6,1 -8,5 1,0 2,0 3,-3 2,-4 3,0 2,-8 3,-1 3,1 5,1 -4,-4 -2,-2 -1,-10l-4 4c-3,2 2,4 -1,0 1,-10 6,-18 6,-33 6,3 11,5 17,9 12,7 46,20 49,28z"/>
   <path class="fil20" d="M630 625c3,-5 2,-3 2,-8 -2,1 -8,7 -2,8zm-3 -13c-2,3 -3,3 -2,7 1,-1 1,1 3,-2 2,-7 0,-4 -1,-5zm-6 -9l-4 6c2,3 3,3 5,5l3 -5 -4 -6zm-8 -1c-1,1 1,2 2,3 0,0 3,-1 3,-3 1,-3 0,-3 -2,-4 -2,2 1,-2 -2,2 -1,0 -1,1 -1,2zm-3 -14l-5 5 5 7 4 -5 -4 -7zm-8 3c4,-2 3,-1 6,-7 -4,2 -4,1 -8,4l2 3zm-8 -44c-25,-5 -33,29 -7,38 12,4 23,-4 24,-16 0,-10 -8,-20 -17,-22zm-31 7c-3,2 -5,2 -2,7 4,-3 4,-3 2,-7zm-20 -24c-25,-11 -41,27 -17,36 11,5 22,-2 26,-9 3,-7 4,-21 -9,-27zm37 -51c1,10 -2,16 7,20 7,3 11,1 20,6 23,14 2,31 15,37 5,10 17,9 23,26 6,17 1,24 -6,36 -6,13 -2,22 -13,35 -9,11 0,3 -3,15 -1,8 -9,7 -17,7 0,0 -1,-2 -1,-2l5 -2c1,1 0,1 3,1 10,1 14,-13 -5,-18 -2,-3 -5,-4 -9,-12 -2,-5 -3,-9 -5,-15l-1 -16c7,7 -3,32 26,45 3,-2 10,-8 9,-14l-32 -39c-7,0 -11,-1 -16,-5 -5,-3 -8,-8 -11,-11 -1,-9 -7,-9 -16,-13 -5,6 -13,13 -27,9 -14,-4 -10,-12 -16,-21 -4,4 -11,11 -15,13l-1 0 8 -10c-3,-9 -8,-19 -2,-30 5,-7 15,-10 20,-16 -1,-9 -5,-4 -4,-16l14 -9c7,6 -2,2 -12,12 1,7 9,9 3,17 -4,4 -8,4 -10,8 -12,2 -14,22 -6,31 5,-3 5,-1 7,-6 2,-3 2,-5 3,-8 8,-5 11,-9 24,-8 8,2 13,5 16,13 4,13 0,9 14,15 4,-2 19,-19 35,-6 12,10 11,21 5,35l22 29c0,0 1,0 1,1l2 2c2,-19 15,-22 9,-44 -7,-20 -19,-17 -26,-29 -7,-11 8,-26 -15,-36 -7,-3 -16,-3 -21,-8 -7,-7 -1,-14 -6,-21 -5,-8 -13,-2 -22,-6 -6,-3 -9,-12 -2,-18 2,8 -5,15 9,17 10,1 16,0 20,9z"/>
   <path class="fil21" d="M403 589c0,1 10,12 13,15 4,5 14,10 15,13 2,5 1,5 -1,10l6 -4c0,0 0,1 0,1 1,0 1,0 1,1l5 3c-3,2 -3,7 -3,11 2,8 4,6 7,6 0,0 1,0 1,0 0,0 0,0 -1,1l-4 5c0,0 0,0 0,0l6 -1c-1,17 2,2 5,14l0 15 -4 -1c0,0 -1,0 -1,0 0,0 -1,0 -1,0 -1,0 -3,0 -4,0l-3 -8c-5,-6 -2,-10 -1,-19 -4,2 -3,-1 -4,7 0,2 0,7 0,9 2,8 6,13 8,17 -12,-8 -16,-19 -11,-36 -1,-2 -1,-1 -3,-3 -2,-3 1,1 -2,-3l6 1c-2,-4 -4,-2 -11,-11 -11,-15 -27,-6 -43,-19 -7,-5 -16,-18 -5,-27 7,-7 10,-4 22,0 6,2 3,0 7,3z"/>
   <path class="fil22" d="M718 800c-1,0 -1,0 -1,0l-3 2c-5,1 -5,-6 -24,1 -2,-4 0,-4 -5,-3 -3,-6 1,-2 -4,-1 -5,2 -2,3 -8,12 2,-5 1,-6 8,-7 -4,11 -4,9 -10,10 -1,1 -3,1 -5,3 -1,1 -3,5 -4,6 -4,-4 2,-4 -8,-8 -9,-4 -6,-7 -5,-12 -12,0 -10,-8 -11,-10 6,-4 11,-5 18,-4l-5 -1c0,0 -1,0 -1,0l-4 0c0,1 0,2 -7,2l-10 0c3,-2 2,-1 3,-3 0,0 0,0 0,0 0,0 0,-1 0,-1l9 -3c-3,4 -10,-1 -15,-2 -22,-1 -5,-6 -16,-1 3,-2 2,-1 3,3 -5,2 -5,6 -7,11 -4,7 -6,4 -9,11 2,-2 8,2 8,2 2,2 4,5 5,9 -5,0 -8,-4 -12,-8 -10,-8 -23,-20 -18,-36 6,4 0,3 7,2 11,-1 16,-1 19,-4l6 -6c2,9 9,11 20,14 9,3 20,4 29,6 19,5 40,12 57,16z"/>
   <path class="fil4" d="M461 1087c2,3 0,2 3,3 1,0 6,0 7,0 4,-1 2,1 4,-3l3 3c3,-3 2,-4 4,-1 3,4 3,4 3,9 0,-1 1,-1 1,-2 4,-2 5,-4 8,-3l3 2c0,-1 1,0 2,1 -7,3 -4,3 -11,0 0,1 1,6 1,7 -7,1 9,0 -6,-2 2,5 3,2 1,6l-3 4c12,-1 5,-2 8,5 -4,1 -5,2 -8,1 17,6 14,-3 15,-3l4 5c-16,15 -101,9 -119,-3 3,-3 3,2 3,-6 4,-2 1,6 3,0 0,0 0,0 0,0 -2,-8 -1,-5 3,-13 1,2 1,7 2,8 5,7 5,2 5,1 15,8 36,9 52,3 0,-9 -2,-5 -3,-8 0,-1 0,-1 -1,-1 1,0 1,-2 1,-2l5 -2c-4,-2 0,1 -2,-3 -3,-6 -1,-6 -7,-8 8,2 0,0 4,3 6,5 5,3 12,5 0,-4 0,-7 3,-9 -2,2 -1,0 0,3z"/>
   <path class="fil23" d="M772 742c-3,6 -2,-2 -2,3 0,3 2,-2 0,4 -3,9 1,-2 -8,4l-2 -2c0,0 0,-1 0,-1 0,0 0,-1 0,-1 2,-8 -1,-2 2,-5l2 -2c0,0 1,0 1,0 -4,-2 1,1 -3,-1 -10,-4 6,3 -3,-1l-2 -1c3,-7 3,-14 -2,-19l-3 8c-2,4 -2,8 0,13 -3,-1 -2,0 -4,0 0,-1 0,-3 0,-4l-3 -6c-2,-2 -3,-4 -5,-7 -1,-2 -3,-4 -5,-6 -10,-11 -28,-19 -44,-23 -27,-7 -48,-10 -77,-14 7,-4 49,-3 55,-2 30,1 65,6 84,28 15,19 2,31 19,35z"/>
   <path class="fil24" d="M543 1101c6,-2 14,-9 16,-14 -4,3 -6,4 -9,7l-5 4c-3,2 -1,1 -2,3zm18 -25l5 -7 4 4c3,2 0,-1 2,1 0,1 1,0 -3,3 -2,1 -1,0 -4,2 -3,3 -4,4 -6,8 7,-3 3,-2 8,-6 7,-6 22,-5 31,-6 -3,3 5,2 -5,4 -5,-1 -3,-1 -8,0 -11,2 -15,8 -18,10 -6,4 -6,6 -12,11 0,0 0,0 0,1 -1,0 -1,0 -1,0l-7 4c-17,13 -12,8 -31,16 -3,-1 -4,3 -1,-3l25 -14c3,-2 1,0 3,-3 -8,1 -20,11 -31,14 0,-5 3,-2 -2,-3l3 -3c0,-1 1,-2 1,-2l5 -3c0,0 0,2 1,2 0,0 0,1 0,1 1,-1 1,0 2,1 4,-3 5,-3 7,-6l-5 -1c-5,-4 1,2 7,-7 2,-3 0,-6 0,-14l7 -4c0,-1 0,-1 1,-1 -9,2 -9,-1 -14,0 -1,0 -3,1 -5,1l2 -11c-2,-5 -1,3 -1,-3 0,-5 0,1 1,-4 0,-9 1,5 -1,-3 4,-3 -1,-2 8,-3 -1,-3 2,7 -4,-3 -3,-5 -2,-7 -1,-13 -10,4 -2,-2 1,-5l0 0c0,0 2,2 2,2 6,7 4,0 10,8l9 11c2,3 4,8 3,13 0,1 1,2 -3,4l7 8c0,0 2,1 2,1 3,3 1,1 3,3 0,0 0,0 0,0l3 -5z"/>
   <path class="fil25" d="M540 687l3 7 4 5c-5,1 -1,-3 -4,4 -4,9 -4,17 -5,16 0,0 0,1 0,1 0,-4 1,-6 -2,-1 -2,2 -2,4 -2,7 -1,7 1,11 -1,16l-4 3c-1,0 -1,0 -1,0 0,0 0,0 -1,1l-15 6c6,-2 3,-3 3,-5 -1,-9 -3,-1 -7,-13 -1,-2 -1,1 0,-3 1,-6 -5,7 1,-2 1,0 1,-1 1,-1 0,0 -1,-1 -1,-1 -1,2 -5,-4 -5,-4 -3,-4 3,-3 -6,-5 -9,-3 -8,1 -19,-6l4 -9c8,1 29,5 36,0 -8,-2 -20,1 -26,-2 7,-3 19,-2 27,0l-10 -1c-1,-6 -1,3 0,-5l1 -4c4,-2 3,-1 8,-1 -3,-2 -4,-1 -3,-3 9,1 6,2 14,-4 5,2 7,3 10,4z"/>
   <path class="fil26" d="M248 460c-4,6 -11,17 -14,28 -2,8 -5,21 -4,30 3,24 30,-1 28,-42 0,-10 -1,-16 -10,-16zm82 41c-6,-2 -1,-1 -5,-3 -6,-4 -5,-2 -8,-2 -3,0 1,0 -5,-2 -4,5 -6,8 -14,6 -1,0 -2,0 -3,0l-2 -1c0,0 0,1 0,1 -8,0 -2,0 -8,-2l-1 4c0,-5 0,-4 1,-8 3,-9 1,0 4,-7 -5,-3 -7,2 -16,-6l-5 -6c-5,-4 -1,2 -5,1l3 -11c-6,6 -4,6 -4,17 0,21 -7,35 -22,48 0,0 1,-1 1,0 1,6 0,0 2,0 1,2 1,-3 1,2l-4 0c1,0 1,0 2,1 0,1 5,2 7,7 -8,-3 -15,-4 -19,-11 -5,-8 -4,-18 -3,-28 3,-16 9,-35 21,-41 11,-9 34,4 46,11 7,4 13,6 21,10 10,5 14,7 15,20z"/>
   <path class="fil3" d="M399 1028c-10,-5 -2,-6 -15,-12l-3 9c-3,-3 -3,-5 -4,-11 -1,0 -4,0 -4,-1 0,0 -1,0 -1,0l-1 -3c-1,0 -1,0 -1,0 0,0 0,-1 0,-1l-5 -3c0,-11 -3,-16 -13,-17l-1 8 -1 3c-8,-8 -14,-3 -10,-14 10,0 1,0 5,-2l4 -1c3,-1 6,-4 8,-6l0 5c0,3 -1,0 0,2 4,4 9,-2 33,-4 7,0 5,-2 10,0 3,12 -1,9 -8,14 0,5 -1,4 1,8l6 6c8,-11 9,5 9,-16 -6,-2 -4,0 -4,-6l14 -5c1,0 6,0 6,2l1 9 -15 0c-1,0 -1,0 -2,1 0,10 0,18 10,20 -3,3 5,4 -6,4 4,4 3,1 2,8l-15 3z"/>
   <path class="fil27" d="M723 821c-9,2 1,3 -8,1 -2,0 -3,-1 -4,-1l-1 -1c-4,3 -1,0 1,4 3,4 2,-2 1,8l0 8c0,0 0,1 0,1 4,4 -5,0 3,1 6,0 -1,0 2,0 1,0 0,-1 5,-2 17,-1 -2,2 8,2 9,-21 -2,-5 -7,-21zm22 23l-3 -1 -1 3 -3 0c2,7 1,4 -2,6 1,-5 -2,-4 -4,-5l-14 13c0,0 -1,1 -1,1 -13,-10 -30,-12 -44,-18l-2 -4c0,-9 -4,9 4,-4 0,-1 0,-1 0,-1 2,-4 -2,-5 9,-10l10 -6c4,1 2,3 7,4l1 -2c1,0 1,-1 2,-2 0,0 1,-1 1,-2 18,-2 10,-2 17,-3 5,-1 4,-1 10,2 1,1 2,2 2,2 2,-3 1,7 2,9 9,4 4,2 11,3l2 5c1,4 1,0 0,2l-4 8z"/>
   <path class="fil28" d="M319 1102l10 6c-3,-7 -2,-3 -8,-9 -3,2 -4,-2 -2,3zm-5 -247c0,4 1,1 -1,4 -6,3 -10,8 -15,15 -3,1 0,-1 -3,2 -29,34 -32,93 -23,134 2,10 11,34 17,38 2,7 6,9 9,14 4,6 1,13 4,18 -1,13 8,19 17,25 0,-3 1,4 0,-3 -4,-1 -3,1 -5,-3 -1,-2 -1,-2 -1,-4 7,-1 13,6 18,8 1,3 2,4 2,7 0,2 0,0 0,2l0 1c7,2 14,2 20,-2 5,1 10,1 16,2 6,1 6,3 12,3 18,12 103,18 119,3 5,0 10,-3 12,-4 11,-3 23,-13 31,-14 -2,3 0,1 -3,3l-25 14c-18,4 -28,10 -50,12l0 2 -38 0 0 -3c-16,-1 -35,-5 -48,-10 -10,-3 -13,-5 -24,-4 -11,1 -15,4 -25,0 -42,-19 -28,-41 -35,-52 -3,-5 -8,-11 -11,-17 -16,-27 -22,-61 -19,-96 3,-21 8,-47 20,-65 6,-9 4,-9 8,-19l-33 -30c-3,-3 -6,-7 -9,-9 2,-3 -2,-7 5,0 3,3 3,4 6,6 8,9 22,18 31,31 6,-1 3,-1 9,-4 -4,10 -6,4 -9,13 5,-4 6,-5 11,-10 3,-3 5,-6 10,-8z"/>
   <path class="fil24" d="M590 1044c5,-1 4,-2 6,-7 -6,2 -2,1 -6,7zm-5 -5c4,-2 1,0 4,-4 1,-1 0,-1 1,-3 -5,0 -3,0 -5,7zm18 -12l2 3c3,-3 3,-2 4,-7 0,0 2,-7 5,2 1,-5 0,0 0,-6 1,-8 -3,2 0,-3 6,3 11,13 11,22 -3,-6 1,-2 -4,-7 -9,3 -11,9 -16,15 -2,4 -8,10 -7,15 1,16 14,-5 19,-10 2,-2 1,-1 3,-3 -2,7 -3,5 -4,10 -5,3 -8,11 -16,14 -6,2 -22,2 -28,2 1,-1 1,-3 3,-3l-2 -1c0,0 -1,-1 -1,-1 -5,-8 0,4 0,-2l0 -9c8,4 10,8 11,-7 -7,2 -4,-2 -8,4 0,-3 -1,-2 2,-4 -12,-1 0,1 -4,-4l2 -4 -5 3c-1,1 -3,2 -4,3 1,-13 1,0 -1,-6l-1 -2c-2,-5 -3,-4 -8,-6 -2,0 -1,2 -4,-3 5,1 4,1 7,-1 0,-3 -2,-2 1,-2l3 -1c1,0 8,-3 8,0 -2,6 -2,6 3,9 -1,-4 -3,-5 1,-12l2 -8c4,6 1,2 -1,13 1,0 1,-1 1,-1l8 0c0,-1 -1,-3 -1,-3 0,-1 0,-1 0,-1 -1,-2 0,-3 -2,-4 11,-3 7,-8 6,-11 0,7 1,7 0,11 4,4 -2,0 2,1l0 -1c-1,3 -1,11 4,5 4,-4 5,-5 0,-5l11 4c-6,-2 -6,0 -9,4 2,-1 5,-2 5,-2 4,-1 -4,-6 2,0z"/>
   <path class="fil29" d="M591 972c-1,7 1,1 -3,10 1,-10 -1,4 -5,-3 2,3 3,1 1,5l-3 4c0,0 -1,1 -1,1 0,-1 0,-1 -1,-2 0,0 0,0 0,-1l0 -7c2,8 -1,3 1,11 0,0 0,1 0,1l3 12c-1,17 0,6 -6,7l-1 1c-2,0 -7,-7 -13,-13 -4,-4 0,-2 -5,-4 -1,3 -4,-2 3,5 -10,-2 -4,-2 -8,1 2,-5 1,-1 1,-5 0,-1 0,-2 0,-3l0 -7c0,-5 0,3 1,-5 -3,-2 1,0 -3,0l-3 -7 -3 3c-5,2 -1,1 -6,2 1,-14 1,-11 10,-9 2,-9 0,-1 -1,-7 0,0 0,0 0,0l7 -3c-2,-14 -1,-5 2,-9 -4,8 -5,9 0,16 6,-3 5,5 5,-18 0,0 1,1 1,1 6,5 5,-4 13,1l-6 3c-2,2 -2,-2 -2,3 -2,13 3,9 5,10 2,-6 1,-7 1,-14l3 8c1,3 2,1 1,3l-1 -8c-1,-5 3,-2 -3,-5 5,-3 2,-2 9,-2 4,1 5,0 7,-2 0,0 0,1 0,1 1,1 1,1 1,2l7 12c-7,1 0,0 -5,3 -9,7 -6,4 -8,11 4,0 2,-1 3,-1l2 -2z"/>
   <path class="fil30" d="M446 568c-1,3 1,2 -2,4 -7,-1 2,0 1,5l-6 0c-5,-2 -2,-2 -1,-3l-6 7 9 3c-1,5 -1,7 -3,10 9,0 4,-4 8,-1 8,5 -2,-1 3,9l-5 -2c-1,-4 -17,-7 -29,-11 -10,-3 -22,-5 -30,-10 20,-20 12,-19 18,-36 6,2 34,20 43,25z"/>
   <path class="fil31" d="M533 742c2,20 -51,19 -67,4 -2,-11 1,-9 3,-17 6,-2 9,-8 10,-17 11,7 10,3 19,6 9,2 3,1 6,5 0,0 4,6 5,4 0,0 1,1 1,1 0,0 0,1 -1,1 -6,9 0,-4 -1,2 -1,4 -1,1 0,3 4,12 6,4 7,13 0,2 3,3 -3,5l15 -6c1,-1 1,-1 1,-1 0,0 0,0 1,0l4 -3z"/>
   <path class="fil32" d="M481 758c-2,1 -2,1 -4,3 -1,-1 -1,-6 -4,2 -2,4 -1,4 -1,8 -2,2 -6,-4 -1,6l-13 2c1,6 8,11 14,13 -1,0 -6,2 -7,3 -6,3 -4,-2 -6,7l-7 -4c4,7 2,12 8,13 4,1 3,0 3,-2 -1,2 -2,-2 -1,4 1,5 5,1 1,12 -4,-1 -2,-3 -5,2 2,2 1,1 3,2l8 7c7,-3 1,-5 5,-2l3 2c-11,7 -2,2 -13,6 -13,-2 -21,-13 -18,-29 0,0 -3,1 -4,2l1 -9c8,1 2,1 5,-3l-21 1 16 -2 4 -10c1,0 5,3 6,-9 1,-9 -7,-33 4,-45 3,5 4,7 11,11 3,3 9,5 13,9z"/>
   <path class="fil33" d="M574 678l1 5 39 -2c29,4 50,7 77,14 16,4 34,12 44,23 2,2 4,4 5,6 2,3 3,5 5,7 2,29 -18,17 -20,36 8,15 35,10 44,19 -12,0 -28,-6 -38,-10 -4,-3 -5,-4 -8,-7 -1,-15 7,-13 15,-20 18,-16 -11,-41 -43,-50 -33,-11 -78,-18 -114,-14 -7,1 -3,-1 -7,2 2,5 1,2 11,6 4,3 8,5 12,7 2,4 2,2 5,6 3,4 3,4 5,9 2,5 2,11 0,14 -6,19 -24,22 -27,43 -5,16 8,28 18,36 4,4 7,8 12,8 10,14 42,22 63,27 14,6 31,8 44,18 8,3 17,11 19,19 -12,-9 -16,-24 -64,-34 -15,-1 -50,-17 -61,-24 -7,-4 -20,-15 -24,-20 -9,-10 -9,-15 -11,-32 5,-5 7,-13 11,-18 6,-6 8,-8 13,-15 11,-15 4,-32 -10,-37 -3,-4 -14,-9 -21,-8 -13,0 -10,5 -22,7l-4 -5c8,2 8,2 13,-1 9,-7 10,0 17,-9 -2,-4 -2,-4 -5,-7 0,-3 -1,0 1,-2 2,1 3,2 5,3z"/>
   <path class="fil34" d="M575 513c-25,-11 -8,0 -23,1 -5,1 -6,1 -9,2 -3,-5 1,-4 -7,-9 -5,-2 -2,1 -6,-3 4,-8 4,9 6,-10 -3,0 -1,-1 -7,2 4,-5 4,-4 3,-7 -5,4 -8,4 -7,10 0,3 5,13 -4,10 6,-8 -2,-10 -3,-17 10,-10 19,-6 12,-12 -2,-4 -2,-7 1,-12 2,-3 6,-6 8,-6l3 -1 3 9c0,1 1,3 2,3l15 6c0,0 1,0 1,0 0,0 1,0 1,0 0,0 3,0 4,-1l-4 5c1,7 2,11 7,13 2,1 0,-1 -2,3l-3 6 8 7c0,0 1,1 1,1z"/>
   <path class="fil35" d="M399 1028c3,17 -4,6 1,15 -7,2 -2,-7 -6,2 -1,5 -1,9 2,13 -1,0 -1,0 -1,0 0,1 -1,0 -1,1 -1,0 1,-3 -2,1 -2,1 -2,4 -3,6 1,-2 3,-4 -3,-9 -6,-6 -4,-6 -8,-7 -9,-1 -9,7 1,11 -2,5 4,4 -3,4 -3,0 -7,12 -10,0 -1,-4 5,-7 1,-3 -1,-7 0,-6 -7,-10 -1,-7 1,-9 -3,-12 11,-1 0,1 5,-4 0,-25 -10,-12 1,-29l2 -1 5 3c0,0 0,1 0,1 0,0 0,0 1,0l1 3c0,0 1,0 1,0 0,1 3,1 4,1 1,6 1,8 4,11l3 -9c13,6 5,7 15,12z"/>
   <path class="fil36" d="M575 513c4,1 2,2 4,-1 6,0 4,2 3,-2l4 1 2 1c11,5 11,10 11,23 -1,0 -1,-2 -2,-1 0,0 0,-1 -1,-2 -4,-6 -3,-8 -5,-11l1 5c1,6 -1,7 0,14 -6,-9 0,-4 -4,-5 -4,-2 0,0 -7,3 -2,-7 -3,-9 -9,-10 -7,-2 -9,0 -14,0 -10,0 -11,-12 -29,-6 0,0 -1,0 -1,1l11 3c-13,-1 -16,3 -24,8 1,-5 0,-1 3,-6 -2,-3 1,3 -1,-1 0,0 0,0 0,0 0,-1 0,-2 0,-2 -3,-5 0,-4 -6,-3l0 -2 0 -3c2,-4 6,-4 10,-8 9,3 4,-7 4,-10 -1,-6 2,-6 7,-10 1,3 1,2 -3,7 6,-3 4,-2 7,-2 -2,19 -2,2 -6,10 4,4 1,1 6,3 8,5 4,4 7,9 3,-1 4,-1 9,-2 15,-1 -2,-12 23,-1z"/>
   <path class="fil37" d="M331 1103c-5,-2 -11,-9 -18,-8 0,2 0,2 1,4 2,4 1,2 5,3 1,7 0,0 0,3 -9,-6 -18,-12 -17,-25 2,-8 1,-10 -2,-17 1,2 0,0 3,5l3 20c19,-10 0,-15 3,-25 4,0 2,1 7,3l10 4c0,1 1,3 2,3 1,5 1,-5 0,3l-1 2c0,0 0,1 -1,1 4,-1 3,-1 5,-2 -5,-3 -2,0 -7,-8l-2 -4c4,-2 5,-2 7,-6 7,4 7,1 13,6l4 5c-6,2 -3,-5 -1,1 0,0 1,1 1,1l15 9c-1,0 -1,0 -1,1 0,0 -1,0 -1,1 0,0 -1,0 -1,1l-2 7c-2,-4 4,-5 -5,-5 -7,0 -1,-1 -6,4l10 4c0,-1 1,0 1,0 -6,2 3,-2 -3,1l-5 4c14,-5 10,-2 11,-1 -13,2 -8,1 -9,4 -1,0 -1,0 -2,-1l-5 -1c-10,1 3,2 -12,-1l0 4z"/>
   <path class="fil38" d="M529 777c13,17 1,11 5,27 2,9 12,17 7,29 -1,0 -1,0 -1,0 0,0 -1,0 -1,0 -1,0 -3,0 -4,0l-1 0c-6,-2 -3,-3 -7,-3 0,0 0,0 -1,0l-4 1c-1,-6 -13,-13 -19,-16 3,-12 1,-29 0,-41l2 7c9,-2 7,0 17,-1 1,0 1,0 1,0 1,0 1,0 1,0l5 -3z"/>
   <path class="fil39" d="M338 831c-6,-4 -9,-3 -16,-4 -3,4 -4,3 -6,7 7,1 17,0 22,-3zm-20 -5c-5,1 -7,4 -10,8 8,0 5,-3 10,-8zm-34 -2c3,7 14,8 20,9 5,-5 4,-2 7,-8l-11 0c-1,-1 2,-6 -4,-5 -4,0 -10,3 -12,4zm15 -90c6,6 10,6 15,12l47 65c9,10 36,-8 66,-7l21 -1c-3,4 3,4 -5,3 -27,-1 -63,6 -84,19 -9,4 -16,9 -23,14 -8,5 -15,12 -22,16 1,-6 11,-10 20,-19 -11,1 -19,2 -30,1 -38,-6 -22,-21 3,-21 14,0 19,4 29,10 -3,-6 -12,-17 -16,-21l0 -1c8,3 20,21 21,26 3,0 26,-12 29,-14 -7,0 -12,2 -18,4 4,-5 3,-3 8,-6 -7,-9 -12,-19 -19,-28 -6,-9 -12,-16 -19,-26 -13,-18 -28,-31 -61,-29 3,-3 -1,-2 6,-3 9,-3 24,4 32,6z"/>
   <path class="fil40" d="M748 873c-3,-8 -10,-18 -17,-20 1,2 0,1 2,3 11,11 9,11 13,15l2 2zm17 -12c-2,2 -2,3 -3,5 -2,1 -1,1 -3,2 -1,1 -1,1 -2,2 -5,4 -10,9 -16,12 -14,7 -18,-3 -23,-8 -16,-15 -37,-20 -44,-26l-2 -2c48,10 52,25 64,34 -2,-8 -11,-16 -19,-19 0,0 1,-1 1,-1l14 -13c2,1 5,0 4,5 3,-2 4,1 2,-6l3 0c5,1 8,4 12,8 2,1 3,2 6,4 3,3 0,2 6,3z"/>
   <path class="fil41" d="M635 746c-3,2 -8,5 -12,7 -2,1 -6,4 -7,5 -1,1 -4,5 -4,6l-6 6c-3,3 -8,3 -19,4 -7,1 -1,2 -7,-2 3,-21 21,-24 27,-43 5,2 4,7 3,-3 6,5 2,-5 5,7 4,-5 -5,3 1,-3 3,-3 0,-2 5,-3l-2 4c-1,1 -1,1 -1,2 -3,6 1,1 -2,4l10 7c0,0 1,1 1,1 0,0 -1,-1 -1,-2 0,0 -1,0 -1,-1 0,-1 0,-1 -1,-2 -2,-7 -1,-3 0,-6 14,-7 6,-7 12,-9l2 9 -6 1c0,0 -3,0 -3,1l2 4c0,1 0,1 0,2 1,0 1,0 1,1l2 2c0,0 0,0 1,1z"/>
   <path class="fil42" d="M796 744c13,2 8,7 0,22 0,1 -1,2 -2,4 -1,2 -1,1 -2,2 -1,0 -3,3 -3,3 -3,3 0,0 -2,3 -14,0 -23,-5 -33,-9 -2,-4 -2,4 -2,-7l12 3c0,0 0,0 0,0 -1,2 2,2 -5,-4l-4 -4c0,-1 -2,3 0,-3 1,-3 2,-4 5,-3l2 2c9,-6 5,5 8,-4 2,-6 0,-1 0,-4 0,-5 -1,3 2,-3 8,-2 16,1 24,2z"/>
   <path class="fil41" d="M752 741l1 5c-8,13 -31,18 -19,25 13,7 13,-1 20,-2 10,4 19,9 33,9 2,-3 -1,0 2,-3 0,0 2,-3 3,-3 -3,7 -6,10 -11,16 -10,11 -21,6 -39,0 -3,-1 -6,-2 -9,-3l-6 -5 -1 -3c1,0 1,1 2,1 11,3 -1,3 3,-2 10,4 26,10 38,10 -9,-9 -36,-4 -44,-19 2,-19 22,-7 20,-36l3 6c0,1 0,3 0,4 2,0 1,-1 4,0z"/>
   <path class="fil43" d="M284 502l-1 6c-21,2 -14,16 -21,19 -6,2 -2,0 -3,-1l-2 8c-6,-1 -5,-1 -6,-2 -4,-1 1,0 -3,0l-4 0c0,-5 0,0 -1,-2 -2,0 -1,6 -2,0 0,-1 -1,0 -1,0 15,-13 22,-27 22,-48 0,-11 -2,-11 4,-17l-3 11c4,1 0,-5 5,-1l5 6c9,8 11,3 16,6 -3,7 -1,-2 -4,7 -1,4 -1,3 -1,8z"/>
   <path class="fil20" d="M281 792c-4,2 -7,4 -9,8 4,2 3,2 7,0 3,-4 2,-2 2,-8zm-11 -14c-1,10 -5,11 -11,5 -2,6 -3,7 3,11 0,0 0,-1 0,-1l2 -4c0,0 0,-1 1,-1 0,0 0,-1 1,-1 0,6 0,4 3,8 7,-1 9,-2 9,-9 -2,-1 0,-3 -6,-1 0,-3 1,-3 -2,-7zm14 2c-1,1 -1,-1 -3,3 0,2 0,5 1,7 3,-3 6,-3 2,-10zm-14 18c-9,-3 -15,1 -15,-13l-6 -2c1,4 2,3 4,6 3,7 0,13 9,14 7,0 6,-2 8,-5zm0 -20c-2,-5 -2,-4 -7,-5 -1,6 -2,5 1,10 4,-2 1,-3 6,-5zm-11 5l2 -13 -6 0c-2,9 0,8 4,13zm19 -2l2 -3c8,-21 -16,-21 -18,-8 16,3 6,7 16,11zm10 -2c7,-9 1,-12 0,-14 -4,-6 -1,-5 -3,-10 -1,-1 -11,-13 -20,2l0 -1c0,-1 -1,-1 -1,-2 -1,-3 1,0 -2,-3 -11,-1 -10,1 -11,10 -1,11 -4,4 -6,14 3,4 3,5 9,7 -6,-12 -2,-10 5,-16 0,-1 2,-3 2,-3 10,-8 28,-5 22,14l5 2zm32 25l0 1c-6,-5 -20,-15 -31,-18 -9,13 -3,5 -6,12 -4,7 -21,6 -25,5 -5,-3 -13,-21 -15,-26 -1,-4 -2,-4 1,-9 3,-4 4,-2 5,-8 2,-20 2,-9 20,-13 6,-1 12,-1 16,4l9 15c3,7 -3,12 -5,16 3,3 4,3 9,5 5,2 20,11 22,16z"/>
   <path class="fil44" d="M435 880c-2,-17 5,-18 -1,-25l-4 -5c0,-1 -1,-1 -1,-2 10,8 0,6 14,6 -3,-3 -1,-1 -3,-6l34 -3c-4,4 5,3 -7,3 10,4 3,1 11,-1 1,5 3,6 1,12l-7 1 -2 10c-16,1 -17,6 -26,8 -5,1 -5,-1 -9,2z"/>
   <path class="fil43" d="M459 611c0,-1 1,-1 2,-4 4,-10 -3,-9 -5,-10 -2,18 0,13 3,16l0 -2zm-6 2l0 -11 -4 0c-5,-10 5,-4 -3,-9 -4,-3 1,1 -8,1 2,-3 2,-5 3,-10l-9 -3 6 -7c-1,1 -4,1 1,3l6 0c1,-5 -8,-6 -1,-5 3,-2 1,-1 2,-4 7,4 16,9 22,12 14,7 7,10 5,21 3,-2 5,-6 7,-8 6,3 12,5 8,13 -12,5 -8,-7 -16,1 0,-8 0,-9 -7,-11 0,3 -1,10 -1,12 -3,7 -2,1 -6,6 -1,-4 1,0 -5,-1z"/>
   <path class="fil45" d="M515 610l-1 1c-4,-5 2,-2 -3,-1 -3,1 0,-1 -4,2 -3,-1 -1,1 -3,-2 -2,-2 -1,0 -3,-3 2,-5 3,-5 -1,-9 0,-6 0,-1 -2,-4 -6,-7 -5,-2 -7,-9 0,-3 3,1 -1,-6l10 -11 13 2c0,0 1,2 1,2l7 10c1,1 3,2 5,2 -1,8 -2,6 -2,12l2 9c-3,1 2,1 -6,1l-6 0c0,1 0,1 0,2 1,8 -1,-1 1,2z"/>
   <path class="fil46" d="M500 783c-3,9 0,21 -2,28l-21 -4c19,-12 -9,-27 0,-46 2,-2 2,-2 4,-3 7,1 13,0 16,6 3,5 4,13 3,19z"/>
   <path class="fil38" d="M464 842c11,-4 2,1 13,-6l-3 -2c-4,-3 2,-1 -5,2l-8 -7c-2,-1 -1,0 -3,-2 3,-5 1,-3 5,-2 4,-11 0,-7 -1,-12 -1,-6 0,-2 1,-4 0,2 1,3 -3,2 -6,-1 -4,-6 -8,-13l7 4c2,-9 0,-4 6,-7 1,-1 6,-3 7,-3 -6,-2 -13,-7 -14,-13l13 -2c-5,-10 -1,-4 1,-6 2,11 10,17 8,29 -6,6 -12,4 -5,16 15,27 -5,29 -11,26z"/>
   <path class="fil47" d="M235 524c-9,-13 6,-56 16,-62 12,8 2,60 -16,62z"/>
   <path class="fil44" d="M358 955l2 11c4,0 6,-1 9,-2l9 2c0,10 2,12 -6,14 -14,2 -3,0 -13,3 0,0 -1,1 -1,1 0,0 0,0 -1,0 -1,-2 0,1 0,-2l0 -5c-2,2 -5,5 -8,6l-4 1c-4,2 5,2 -5,2 -4,3 -4,3 -4,8l-2 -3c-1,0 -1,0 -1,-1l-4 -10c1,-10 -5,10 4,-3l1 -3c0,0 0,-1 0,-1 1,-4 1,-7 -1,-7 3,1 3,2 9,0l11 -13 5 -2 0 4z"/>
   <path class="fil9" d="M461 389l26 0 -1 6c-6,1 -3,-2 -7,2 3,5 3,4 2,12 5,0 5,-1 8,1l3 2c3,-4 2,-4 4,-7 1,-3 2,0 4,-6l-7 -3 -1 -7 19 0 -1 8 -5 1c-2,1 -1,0 -2,1 0,-1 -4,-1 1,-1 7,0 2,0 4,1l1 9c0,0 -1,0 -1,1 -2,5 0,-1 -3,2l-2 2c0,0 -1,1 -1,1l-2 -6c-2,14 -19,6 -26,5l-13 0 0 -24z"/>
   <path class="fil48" d="M748 808c-21,-6 -43,-15 -67,-21 -18,-5 -59,-9 -66,-22l2 -5c4,6 5,4 16,8 25,7 63,14 85,24 5,2 9,4 15,7l14 8c1,0 1,1 1,1z"/>
   <path class="fil49" d="M612 628c-3,1 -1,-2 -4,4 4,-1 3,2 4,-4zm7 -2c-5,2 -3,1 -4,7 5,-3 3,-1 4,-7zm-25 -13c-4,-6 -3,-11 -3,-18l0 -3c1,-1 1,-1 1,-1 0,0 1,-1 1,-1 0,0 1,0 1,0 0,-1 1,-1 1,-1 1,0 1,0 1,0l32 39c1,6 -6,12 -9,14 -29,-13 -19,-38 -26,-45l1 16z"/>
   <path class="fil50" d="M627 1040c1,-14 -7,-20 -12,-30 -8,-15 -6,-17 -5,-33 1,-23 -10,-51 12,-67 -2,14 -6,15 -4,33 2,39 -11,37 4,68 3,5 4,8 6,14 0,1 2,5 2,6 0,0 -1,3 -1,4 -1,3 -1,3 -2,5z"/>
   <path class="fil16" d="M522 671l6 4c-8,1 -8,1 -14,-3 -2,4 -1,0 2,5 -29,3 -19,-7 -34,-8 -4,-7 -4,-6 -1,-13 4,3 2,3 6,4 -7,-11 -7,-16 -6,-31 6,6 12,36 41,42z"/>
   <path class="fil9" d="M444 600l5 2 4 0 0 11c-2,4 1,0 -3,3 -2,2 -3,2 -4,4 -7,2 -9,0 -15,-3 -1,-3 -11,-8 -15,-13 -3,-3 -13,-14 -13,-15 8,0 30,10 41,11z"/>
   <path class="fil32" d="M541 811c-13,-12 4,-16 -7,-32 -3,-3 -4,-6 -7,-7l2 5 -5 3c0,0 0,0 -1,0 0,0 0,0 -1,0 -10,1 -8,-1 -17,1l-2 -7c0,0 -2,-5 -2,-6 -2,-7 -2,-3 -1,-8 10,0 21,-2 28,-7 -1,18 6,19 11,28 8,12 -3,13 2,30z"/>
   <path class="fil51" d="M541 833c-2,7 -3,9 -10,12 -5,3 -12,4 -19,1 -10,-5 -10,-18 -9,-31 6,3 18,10 19,16l4 -1c1,0 1,0 1,0 4,0 1,1 7,3l1 0c1,0 3,0 4,0 0,0 1,0 1,0 0,0 0,0 1,0z"/>
   <path class="fil33" d="M644 736c-4,13 -16,16 -27,24l-2 5c7,13 48,17 66,22 24,6 46,15 67,21 13,8 21,12 30,21 -3,4 -5,-5 -27,-16 -11,-5 -24,-8 -33,-13 -17,-4 -38,-11 -57,-16 -9,-2 -20,-3 -29,-6 -11,-3 -18,-5 -20,-14 0,-1 3,-5 4,-6 1,-1 5,-4 7,-5 4,-2 9,-5 12,-7 15,-14 -1,-29 -13,-38 -5,-4 -9,-4 -11,-10 9,4 15,10 21,16 6,5 12,10 12,22z"/>
   <path class="fil52" d="M370 565c5,-4 4,1 6,-6 -4,-2 -6,-1 -9,-3 6,6 6,-4 7,-5 1,-1 4,-6 6,-6 3,-1 20,4 18,-7 3,4 2,7 1,14 -3,13 -10,23 -23,28 0,-8 2,-14 -6,-15z"/>
   <path class="fil18" d="M450 839l-11 3c-6,4 2,-1 -2,2l19 1c-1,-2 0,-2 -2,-3 -1,-2 -3,-2 -4,-3zm48 -28c-4,7 -4,1 -23,-1 8,19 13,25 -1,35l-34 3 -8 0c1,-9 9,-8 16,-12 -5,-7 -6,-11 -6,-21 1,-1 4,-2 4,-2 -3,16 5,27 18,29 6,3 26,1 11,-26 -7,-12 -1,-10 5,-16 2,-12 -6,-18 -8,-29 0,-4 -1,-4 1,-8 3,-8 3,-3 4,-2 -9,19 19,34 0,46l21 4z"/>
   <path class="fil15" d="M334 564l-26 -11c2,-2 2,-2 4,-4l5 -4c4,-4 4,-7 9,-11 3,4 -2,2 1,0l4 -4c-1,8 -3,6 1,10 -2,0 -2,-2 -5,-1 1,8 0,4 -2,8 -1,3 -2,3 -3,3 2,-4 3,-2 8,-5 13,-7 14,-25 16,-28 0,0 0,1 0,1 3,6 1,3 1,10l4 -7c2,2 3,6 2,9 -1,0 -1,1 -1,2 0,0 -5,5 -5,5 -3,4 -1,1 -4,4 -10,7 -2,4 -6,8 -1,2 -6,7 -7,6 2,8 1,4 15,4l-11 5z"/>
   <path class="fil53" d="M760 751c-3,-1 -4,0 -5,3 -2,6 0,2 0,3l4 4c7,6 4,6 5,4 0,0 0,0 0,0l-12 -3c0,11 0,3 2,7 -7,1 -7,9 -20,2 -12,-7 11,-12 19,-25l-1 -5c-2,-5 -2,-9 0,-13l3 -8c5,5 5,12 2,19l2 1c9,4 -7,-3 3,1 4,2 -1,-1 3,1 0,0 -1,0 -1,0l-2 2c-3,3 0,-3 -2,5 0,0 0,1 0,1 0,0 0,1 0,1z"/>
   <path class="fil54" d="M519 544c5,-5 8,-9 18,-8 17,1 14,27 -6,24 -9,-2 -12,-7 -12,-16z"/>
   <path class="fil49" d="M622 542c-13,-6 8,-23 -15,-37 -9,-5 -13,-3 -20,-6 -9,-4 -6,-10 -7,-20 6,6 3,8 14,13 6,3 12,4 18,8 16,11 12,39 10,42z"/>
   <path class="fil1" d="M444 931c-2,-5 -5,-7 -8,-11l-3 -5c-4,-7 -3,3 -3,-7l4 -1 6 10c4,4 -2,1 4,3l1 -4c0,-7 -1,-4 -2,-6 -3,-9 2,-11 8,-8 8,3 1,-1 5,5l7 14 -10 9c0,0 -1,5 -9,1z"/>
   <path class="fil55" d="M466 728c6,-6 1,-8 -6,-7 3,5 0,5 6,7zm6 -16c-4,-2 -3,-1 -6,0 3,4 0,3 4,4 4,-3 3,0 2,-4zm-3 17c-7,1 -2,-1 -7,12 -6,-7 -9,-14 -6,-26l13 -22 6 5c-4,2 -8,-4 -4,4 4,6 3,2 8,4 -2,8 -2,11 -7,18l-3 5z"/>
   <path class="fil56" d="M288 779l-5 -2c6,-19 -12,-22 -22,-14 0,0 -2,2 -2,3 -7,6 -11,4 -5,16 -6,-2 -6,-3 -9,-7 2,-10 5,-3 6,-14 1,-9 0,-11 11,-10 3,3 1,0 2,3 0,1 1,1 1,2l0 1c9,-15 19,-3 20,-2 2,5 -1,4 3,10 1,2 7,5 0,14z"/>
   <path class="fil57" d="M317 1007c-14,-3 -15,-25 -12,-35l10 0c5,11 16,26 2,35z"/>
   <path class="fil48" d="M575 572c6,5 10,11 22,7 8,-2 12,-9 8,-18 -7,-17 -32,-13 -30,11zm19 -25c9,2 17,12 17,22 -1,12 -12,20 -24,16 -26,-9 -18,-43 7,-38z"/>
   <path class="fil58" d="M570 632c-5,7 -5,-2 -16,2 0,1 -1,0 -1,4 1,5 4,8 4,8 0,0 1,1 1,1 2,0 3,0 5,0 5,-2 7,-3 10,-6 -3,-3 -1,2 -2,-2 0,0 1,-4 1,-4 8,2 0,-1 5,2 10,6 -5,-1 3,3 3,10 -3,14 -12,16 -12,4 -12,-6 -20,-11 -2,-4 -1,0 -1,-5 -1,-9 4,-9 4,-9 5,-3 14,-2 19,1z"/>
   <path class="fil54" d="M603 571c-13,13 -32,3 -23,-11 7,-13 26,-7 23,11z"/>
   <path class="fil59" d="M550 551c5,-24 -30,-21 -33,-6 -4,18 29,25 33,6zm-7 -21c13,6 12,20 9,27 -4,7 -15,14 -26,9 -24,-9 -8,-47 17,-36z"/>
   <path class="fil60" d="M583 1003l-3 -12c0,0 0,-1 0,-1 -2,-8 1,-3 -1,-11l0 7c0,1 0,1 0,1 1,1 1,1 1,2 0,0 1,-1 1,-1l3 -4c2,-4 1,-2 -1,-5 4,7 6,-7 5,3 4,-9 2,-3 3,-10l6 0 1 22c0,4 1,9 1,13 -11,-5 -4,1 -7,-11 0,10 2,3 -3,13 -3,-7 -6,-8 -5,-18l-1 12z"/>
   <path class="fil61" d="M543 694l-3 -7c-9,-4 2,-2 -6,-4 4,-5 -3,-1 3,-4l4 -1c11,-1 8,3 11,4l0 -2 16 -3c3,3 3,3 5,7 -7,9 -8,2 -17,9 -5,3 -5,3 -13,1z"/>
   <path class="fil6" d="M636 725c-6,2 2,2 -12,9 -1,3 -2,-1 0,6 1,1 1,1 1,2 0,1 1,1 1,1 0,1 1,2 1,2 0,0 -1,-1 -1,-1l-10 -7c3,-3 -1,2 2,-4 0,-1 0,-1 1,-2l2 -4c-5,1 -2,0 -5,3 -6,6 3,-2 -1,3 -3,-12 1,-2 -5,-7 1,10 2,5 -3,3 2,-3 2,-9 0,-14l3 -3c4,-5 -2,0 1,-1 0,0 3,1 6,0 -1,-3 1,-4 -2,-5 -1,2 -3,1 3,5l7 7c1,0 1,0 1,1l4 2c8,6 1,5 6,4z"/>
   <path class="fil62" d="M447 1107c-11,4 -43,8 -49,-5 7,-4 18,-2 27,-2 4,0 9,0 14,1 5,1 6,3 8,6z"/>
   <path class="fil14" d="M235 524c18,-2 28,-54 16,-62 -10,6 -25,49 -16,62zm13 -64c9,0 10,6 10,16 2,41 -25,66 -28,42 -1,-9 2,-22 4,-30 3,-11 10,-22 14,-28z"/>
   <path class="fil56" d="M576 770c1,-27 41,-34 14,-70 14,5 21,22 10,37 -5,7 -7,9 -13,15 -4,5 -6,13 -11,18z"/>
   <path class="fil63" d="M723 821c5,16 16,0 7,21 -10,0 9,-3 -8,-2 -5,1 -4,2 -5,2 -3,0 4,0 -2,0 -8,-1 1,3 -3,-1 0,0 0,-1 0,-1l0 -8c1,-10 2,-4 -1,-8 -2,-4 -5,-1 -1,-4l1 1c1,0 2,1 4,1 9,2 -1,1 8,-1z"/>
   <path class="fil64" d="M426 640c-9,-3 -9,-8 -20,-11 -15,-3 -30,-7 -40,-19 -8,-11 -4,-12 -4,-23l5 1c-3,18 7,28 22,33 16,6 23,0 37,19z"/>
   <path class="fil49" d="M511 520l-5 2c-1,6 -1,5 0,7l3 -4c1,-3 0,-2 2,-3 6,-1 3,-2 6,3 0,0 0,1 0,2 0,0 0,0 0,0 2,4 -1,-2 1,1 -3,5 -2,1 -3,6 -1,3 -1,5 -3,8 -2,5 -2,3 -7,6 -8,-9 -6,-29 6,-31l0 3z"/>
   <path class="fil65" d="M604 870c-8,0 -15,3 -20,3 -8,-2 -6,-5 -11,-10 -8,-10 -19,-18 -20,-22 1,-1 2,-1 6,1 7,3 12,9 16,15 14,17 17,5 29,13z"/>
   <path class="fil66" d="M497 599l0 7 4 1c2,3 1,1 3,3 2,3 0,1 3,2l0 3c0,0 0,0 0,1 0,1 2,1 -3,4l-10 3c-8,-1 -9,-7 -10,-13 6,-1 9,-3 8,-10l5 -1z"/>
   <path class="fil55" d="M481 656c-3,7 -3,6 1,13 -6,0 -8,0 -12,-4 -9,-10 2,-17 2,-17 2,-2 3,-5 5,-8l4 16z"/>
   <path class="fil67" d="M447 1107c-2,-3 -3,-5 -8,-6 -5,-1 -10,-1 -14,-1 -9,0 -20,-2 -27,2 6,13 38,9 49,5zm-2 -7c1,0 1,0 1,1 1,3 3,-1 3,8 -16,6 -37,5 -52,-3l-1 -5c10,-9 36,-2 49,-1z"/>
   <path class="fil20" d="M629 595c6,-21 4,-31 -12,-41 -7,-4 -13,-5 -15,-14 -3,-12 1,-12 -6,-26 10,4 6,12 8,24 2,8 8,11 16,15 15,9 18,26 13,38 -3,7 0,2 -4,4z"/>
   <path class="fil68" d="M603 571c3,-18 -16,-24 -23,-11 -9,14 10,24 23,11zm-28 1c-2,-24 23,-28 30,-11 4,9 0,16 -8,18 -12,4 -16,-2 -22,-7z"/>
   <path class="fil14" d="M317 1007c14,-9 3,-24 -2,-35l-10 0c-3,10 -2,32 12,35zm-14 -11c-2,-10 -6,-20 4,-27l7 0c6,7 9,9 11,20 2,11 0,15 -6,20 -16,0 -10,-7 -16,-13z"/>
   <path class="fil69" d="M674 989c0,0 0,-1 0,-1 -1,-2 -1,-2 -1,-3 -5,5 -2,6 -9,6 4,6 3,2 1,11l6 -2 6 6 0 -9 5 -3c0,0 -1,-1 -3,-2 -1,0 -2,0 -3,0l-2 -3zm-11 16c-2,-11 3,1 -3,-16 1,0 -1,0 3,-1 0,0 4,0 5,0 2,-6 0,-4 5,-7 8,6 -3,3 9,9 5,2 2,1 4,3 -2,4 -2,4 -7,6 0,6 1,5 -2,9 -6,0 -4,1 -6,-5l-8 2z"/>
   <path class="fil68" d="M410 492l8 -3c2,6 0,4 4,7l0 -9 6 -3 -8 -2 -2 -8 -3 7 -7 0c4,5 4,3 2,11zm21 -9c-3,6 -4,4 -6,7 -2,4 2,3 -3,9 -4,-2 -4,-2 -6,-6l-8 2c0,-4 1,-7 0,-9 0,-2 -2,-3 -3,-7 6,-1 5,1 8,-2 5,-4 -2,-3 6,-5 7,9 -3,3 9,9 4,2 1,0 3,2z"/>
   <path class="fil70" d="M519 544c0,9 3,14 12,16 20,3 23,-23 6,-24 -10,-1 -13,3 -18,8zm31 7c-4,19 -37,12 -33,-6 3,-15 38,-18 33,6z"/>
   <path class="fil71" d="M278 781c-10,-4 0,-8 -16,-11 2,-13 26,-13 18,8l-2 3z"/>
   <path class="fil72" d="M600 1065c0,-12 14,-28 20,-31 2,7 -3,13 -7,18 -3,5 -8,11 -13,13z"/>
   <path class="fil73" d="M572 635c0,0 -1,4 -1,4 1,4 -1,-1 2,2 -3,3 -5,4 -10,6 -2,0 -3,0 -5,0 0,0 -1,-1 -1,-1 0,0 -3,-3 -4,-8 0,-4 1,-3 1,-4 11,-4 11,5 16,-2l2 3z"/>
   <path class="fil68" d="M188 409c-6,8 -2,4 -9,7 4,4 3,3 2,10l7 -2c2,5 1,3 4,6l6 -13 -7 -1 -3 -7zm5 4c6,1 5,0 9,5 -4,5 0,2 -7,5l-1 10c-7,-1 -5,0 -7,-6l-9 2c0,-1 1,-8 1,-8 -1,-4 -1,-2 -4,-6 3,-3 0,-1 4,-3 12,-4 2,-3 11,-7l3 8z"/>
   <path class="fil74" d="M304 833c-6,-1 -17,-2 -20,-9 2,-1 8,-4 12,-4 6,-1 3,4 4,5l11 0c-3,6 -2,3 -7,8z"/>
   <path class="fil69" d="M676 928c-8,-1 -5,-1 -8,-6 -2,4 0,4 -6,5 3,5 2,1 1,8 7,-3 4,-3 8,2 0,-9 -1,-3 5,-9zm-15 9c-1,-9 1,-3 -3,-12 13,-6 4,-3 11,-6 12,14 0,0 10,9 -2,4 0,1 -2,3 -4,5 -2,1 -4,10 -12,-3 2,-3 -12,-4z"/>
   <path class="fil68" d="M252 649c-5,-1 -5,-2 -8,-5 -3,8 3,4 -6,9 3,1 2,0 4,2l2 4c0,0 0,1 1,1l3 -5 5 2c-3,-3 -3,-4 -1,-8zm-11 12c-5,-9 -1,-1 -7,-7 3,-8 2,-1 5,-6 3,-3 1,-4 3,-8 9,4 -3,2 13,7 -2,12 2,4 2,14l-7 -2c-3,2 -3,3 -7,5 -1,-1 -1,-1 -2,-3z"/>
   <path class="fil73" d="M610 657l5 -1c-5,0 -6,-2 -10,-3l3 -13c19,5 15,19 5,18 -3,0 -2,0 -3,-1z"/>
   <path class="fil69" d="M484 404c5,2 4,1 8,5 0,-7 0,-5 4,-9 -6,-3 -4,1 -7,-6 -7,7 -5,1 -5,10zm3 -15l5 0 1 7 7 3c-2,6 -3,3 -4,6 -2,3 -1,3 -4,7l-3 -2c-3,-2 -3,-1 -8,-1 1,-8 1,-7 -2,-12 4,-4 1,-1 7,-2l1 -6z"/>
   <path class="fil75" d="M191 416l7 1 -6 13c-3,-3 -2,-1 -4,-6l-7 2c1,-7 2,-6 -2,-10 7,-3 3,1 9,-7l3 7z"/>
   <path class="fil68" d="M238 613l-6 -2 -4 -8c-2,2 -2,3 -3,4l-5 3c5,6 2,2 1,9 4,-3 3,-2 8,-3l2 5c-10,-3 -4,0 -15,1l3 -7c-2,-4 -1,-1 -3,-6 17,-10 3,-3 12,-10l5 9c6,1 5,0 9,2 -3,5 -1,3 -4,3z"/>
   <path class="fil56" d="M259 783c6,6 10,5 11,-5 3,4 2,4 2,7 6,-2 4,0 6,1 0,7 -2,8 -9,9 -3,-4 -3,-2 -3,-8 -1,0 -1,1 -1,1 -1,0 -1,1 -1,1l-2 4c0,0 0,1 0,1 -6,-4 -5,-5 -3,-11z"/>
   <path class="fil76" d="M676 992c1,0 2,0 3,0 2,1 3,2 3,2l-5 3 0 9 -6 -6 -6 2c2,-9 3,-5 -1,-11 7,0 4,-1 9,-6 0,1 0,1 1,3 0,0 0,1 0,1l2 3z"/>
   <path class="fil49" d="M410 492c2,-8 2,-6 -2,-11l7 0 3 -7 2 8 8 2 -6 3 0 9c-4,-3 -2,-1 -4,-7l-8 3z"/>
   <path class="fil67" d="M598 1075c-9,1 -24,0 -31,6 -5,4 -1,3 -8,6 2,-4 3,-5 6,-8 3,-2 2,-1 4,-2 4,-3 3,-2 3,-3 6,0 22,0 28,-2 8,-3 11,-11 16,-14 -1,8 -10,14 -18,17z"/>
   <path class="fil77" d="M354 568c1,7 3,9 10,10l-2 -11c7,7 -1,9 8,13l3 -12 1 14 -5 4c-8,-2 -13,-9 -17,-16l2 -2z"/>
   <path class="fil78" d="M238 613c-5,1 -5,4 -4,9l-3 -1 -2 -5c-5,1 -4,0 -8,3 1,-7 4,-3 -1,-9l5 -3c1,-1 1,-2 3,-4l4 8 6 2z"/>
   <path class="fil14" d="M228 759c1,-7 4,-13 8,-18 4,-5 8,-5 14,-10l12 -3c-3,3 1,1 -5,4 -2,0 -4,1 -6,2 -4,2 -7,3 -10,6 -5,4 -9,11 -11,21 -5,1 0,0 -2,-2z"/>
   <path class="fil74" d="M338 831c-5,3 -15,4 -22,3 2,-4 3,-3 6,-7 7,1 10,0 16,4z"/>
   <path class="fil59" d="M270 798c-2,3 -1,5 -8,5 -9,-1 -6,-7 -9,-14 -2,-3 -3,-2 -4,-6l6 2c0,14 6,10 15,13z"/>
   <path class="fil14" d="M363 1003c-1,-7 -3,-10 -9,-11 0,3 0,5 2,8 3,5 3,4 7,3zm2 3l-2 1c-5,-1 -5,-1 -8,-4l-4 -6 1 -8c10,1 13,6 13,17z"/>
   <path class="fil67" d="M520 1067c-8,-2 -12,1 -12,9 8,3 11,-2 12,-9zm2 -2l-2 11c-5,2 -4,5 -13,2 -3,-7 -2,-9 4,-14l11 1z"/>
   <path class="fil76" d="M242 655c-2,-2 -1,-1 -4,-2 9,-5 3,-1 6,-9 3,3 3,4 8,5 -2,4 -2,5 1,8l-5 -2 -3 5c-1,0 -1,-1 -1,-1l-2 -4z"/>
   <path class="fil79" d="M547 855c-5,1 -6,0 -12,-1 0,-1 -3,-1 -4,-2l-3 -1c0,-1 -1,-1 -1,-1 7,-3 10,-6 20,5z"/>
   <path class="fil13" d="M520 1067c-1,7 -4,12 -12,9 0,-8 4,-11 12,-9z"/>
   <path class="fil80" d="M478 632c-2,-5 -3,-8 -6,-12l7 -7c1,12 4,10 -1,19z"/>
   <path class="fil81" d="M496 400c-4,4 -4,2 -4,9 -4,-4 -3,-3 -8,-5 0,-9 -2,-3 5,-10 3,7 1,3 7,6z"/>
   <path class="fil14" d="M287 932c-4,5 -3,8 2,11 3,-6 3,-8 -2,-11zm6 6l-2 8c-11,-4 -13,-14 -2,-17 4,4 3,2 4,9z"/>
   <path class="fil67" d="M383 1060c-2,-6 -4,-10 -9,-6 3,5 2,4 9,6zm3 -3l-1 5 -6 -1c-10,-4 -10,-12 -1,-11 4,1 2,1 8,7z"/>
   <path class="fil49" d="M676 928c-6,6 -5,0 -5,9 -4,-5 -1,-5 -8,-2 1,-7 2,-3 -1,-8 6,-1 4,-1 6,-5 3,5 0,5 8,6z"/>
   <path class="fil69" d="M459 613c-3,-3 -5,2 -3,-16 2,1 9,0 5,10 -1,3 -2,3 -2,4l0 2z"/>
   <path class="fil67" d="M523 1023c-6,0 -6,1 -7,6l7 -1 0 -5zm2 8l0 0 -11 0c-1,-8 2,-11 12,-10l-1 10z"/>
   <path class="fil82" d="M745 844c5,6 15,10 20,17 -6,-1 -3,0 -6,-3 -3,-2 -4,-3 -6,-4 -4,-4 -7,-7 -12,-8l1 -3 3 1z"/>
   <path class="fil24" d="M363 1003c-4,1 -4,2 -7,-3 -2,-3 -2,-5 -2,-8 6,1 8,4 9,11z"/>
   <path class="fil79" d="M456 845l-19 -1c4,-3 -4,2 2,-2l11 -3c1,1 3,1 4,3 2,1 1,1 2,3z"/>
   <path class="fil83" d="M259 783c-4,-5 -6,-4 -4,-13l6 0 -2 13z"/>
   <path class="fil33" d="M748 873l-2 -2c-4,-4 -2,-4 -13,-15 -2,-2 -1,-1 -2,-3 7,2 14,12 17,20z"/>
   <polygon class="fil48" points="614,595 610,600 605,593 610,588 "/>
   <path class="fil83" d="M270 778c-5,2 -2,3 -6,5 -3,-5 -2,-4 -1,-10 5,1 5,0 7,5z"/>
   <path class="fil68" d="M514 611l1 -1c7,3 7,5 11,10 -6,-2 -6,-4 -10,-7l-5 6c-1,-10 -1,-5 3,-8z"/>
   <path class="fil84" d="M625 609l-3 5c-2,-2 -3,-2 -5,-5l4 -6 4 6z"/>
   <path class="fil68" d="M231 621l3 1c-1,-5 -1,-8 4,-9l0 3c0,0 -1,1 -1,1 -1,5 1,5 -2,9 -7,-3 -3,0 -4,-5z"/>
   <path class="fil85" d="M272 800c2,-4 5,-6 9,-8 0,6 1,4 -2,8 -4,2 -3,2 -7,0z"/>
   <path class="fil24" d="M287 932c5,3 5,5 2,11 -5,-3 -6,-6 -2,-11z"/>
   <path class="fil67" d="M543 1101c1,-2 -1,-1 2,-3l5 -4c3,-3 5,-4 9,-7 -2,5 -10,12 -16,14z"/>
   <path class="fil86" d="M597 700l0 -7c9,1 7,0 6,7l-6 0z"/>
   <path class="fil18" d="M466 728c-6,-2 -3,-2 -6,-7 7,-1 12,1 6,7z"/>
   <path class="fil20" d="M567 628c-12,-7 -9,-3 -14,-1 3,-9 13,-6 17,3l-3 -2z"/>
   <path class="fil87" d="M501 607l-4 -1 0 -7c2,0 2,-1 3,-1 4,4 3,4 1,9z"/>
   <path class="fil88" d="M461 1087l14 0c-2,4 0,2 -4,3 -1,0 -6,0 -7,0 -3,-1 -1,0 -3,-3z"/>
   <path class="fil83" d="M282 790c-1,-2 -1,-5 -1,-7 2,-4 2,-2 3,-3 4,7 1,7 -2,10z"/>
   <path class="fil87" d="M517 642l1 7c-6,-2 -2,0 -6,-2l1 -7 4 2z"/>
   <path class="fil89" d="M523 1028l-7 1c1,-5 1,-6 7,-6l0 5z"/>
   <path class="fil2" d="M383 1060c-7,-2 -6,-1 -9,-6 5,-4 7,0 9,6z"/>
   <path class="fil20" d="M586 511l-4 -1c-3,-3 -4,-2 -7,-6 0,-7 0,-2 2,-3 5,8 3,3 9,10z"/>
   <path class="fil65" d="M319 1102c-2,-5 -1,-1 2,-3 6,6 5,2 8,9l-10 -6z"/>
   <path class="fil48" d="M615 605c-1,-1 -3,-2 -2,-3 0,-1 0,-2 1,-2 3,-4 0,0 2,-2 2,1 3,1 2,4 0,2 -3,3 -3,3z"/>
   <path class="fil74" d="M318 826c-5,5 -2,8 -10,8 3,-4 5,-7 10,-8z"/>
   <path class="fil18" d="M472 712c1,4 2,1 -2,4 -4,-1 -1,0 -4,-4 3,-1 2,-2 6,0z"/>
   <path class="fil90" d="M485 1080c-5,2 -6,2 -11,0 3,-1 -5,-1 6,-2 9,0 3,1 5,2z"/>
   <path class="fil28" d="M518 1085c-3,2 3,0 -4,4 -2,2 -4,2 -7,3 2,-4 -1,-3 11,-7z"/>
   <path class="fil91" d="M473 612c3,-4 -1,-1 3,-5 -1,8 -2,9 -8,12 2,-4 2,-4 5,-7z"/>
   <path class="fil84" d="M630 625c-6,-1 0,-7 2,-8 0,5 1,3 -2,8z"/>
   <path class="fil85" d="M602 591l-2 -3c4,-3 4,-2 8,-4 -3,6 -2,5 -6,7z"/>
   <path class="fil39" d="M514 1107c-3,-2 -5,3 -2,-3 5,-2 5,-4 7,0l-5 3z"/>
   <path class="fil88" d="M333 856c1,-5 1,-5 6,-7 0,4 1,2 -2,4 -1,2 -3,2 -4,3z"/>
   <path class="fil20" d="M511 520l0 2c-2,1 -1,0 -2,3l-3 4c-1,-2 -1,-1 0,-7l5 -2z"/>
   <path class="fil67" d="M561 1076c-2,-3 -2,3 -1,-4l3 -4 3 1 -5 7z"/>
   <path class="fil83" d="M561 561c-3,-5 -1,-5 2,-7 2,4 2,4 -2,7z"/>
   <path class="fil92" d="M603 1027c2,-2 2,-2 6,-4 -1,5 -1,4 -4,7l-2 -3z"/>
   <path class="fil14" d="M522 1108c1,-3 1,-4 2,-7l5 1c-2,3 -3,3 -7,6z"/>
   <path class="fil59" d="M625 619c-1,-4 0,-4 2,-7 1,1 3,-2 1,5 -2,3 -2,1 -3,2z"/>
   <path class="fil93" d="M585 1039c2,-7 0,-7 5,-7 -1,2 0,2 -1,3 -3,4 0,2 -4,4z"/>
   <path class="fil93" d="M590 1044c4,-6 0,-5 6,-7 -2,5 -1,6 -6,7z"/>
   <path class="fil20" d="M624 577c-1,-4 -2,-4 0,-7 0,0 2,-1 2,3 0,10 1,2 -2,4z"/>
   <path class="fil92" d="M421 1087c-1,0 1,2 -5,0 -4,-1 0,1 -3,-2 3,0 3,0 6,0 0,0 1,1 1,1 0,0 1,0 1,1z"/>
   <path class="fil93" d="M548 998l2 -6c0,1 4,-1 1,4 -2,4 -1,2 -3,2z"/>
   <path class="fil94" d="M619 626c-1,6 1,4 -4,7 1,-6 -1,-5 4,-7z"/>
   <path class="fil93" d="M494 1101c5,-3 4,-3 7,0 -1,0 -2,1 -4,1 -4,0 -2,-1 -3,-1z"/>
   <path class="fil95" d="M559 1031c-5,-2 -2,1 -4,-2 8,-7 3,-4 5,0 -3,0 -1,-1 -1,2z"/>
   <path class="fil20" d="M575 504c2,3 2,3 3,5l-6 -3c3,-5 -1,-1 3,-2z"/>
   <path class="fil88" d="M596 927c-2,-2 -2,3 -2,-4 0,-4 1,-3 2,-3l0 7z"/>
   <path class="fil92" d="M291 1023c-4,-1 -3,-4 -2,-7l2 7z"/>
   <path class="fil96" d="M572 491l-3 -6c4,2 6,1 3,6z"/>
   <path class="fil96" d="M612 628c-1,6 0,3 -4,4 3,-6 1,-3 4,-4z"/>
   <path class="fil93" d="M573 1047c-5,3 -1,1 -3,-1l5 -3 -2 4z"/>
   <path class="fil95" d="M555 1009c2,-5 1,-4 4,-5 -3,6 0,2 -4,5z"/>
   <path class="fil92" d="M569 934l0 -4c4,2 1,4 0,4z"/>
  </g>
 </g>
</svg>
